<?xml version="1.0" encoding="UTF-8"?>
<svg version="1.1" xmlns="http://www.w3.org/2000/svg" width="2000" height="404">
<path d="M0 0 C42.57 0 85.14 0 129 0 C133 23 133 23 133 26 C129.85627617 26.92399834 126.7096258 27.83766248 123.5625 28.75 C122.70333984 29.00265625 121.84417969 29.2553125 120.95898438 29.515625 C112.37942909 31.9934749 103.70084055 34.00163491 95 36 C105.76387463 65.27806287 116.55261245 94.54617903 127.45776367 123.77197266 C128.24400638 125.87922113 129.03021999 127.98648046 129.81640625 130.09375 C130.21576889 131.16418549 130.61513153 132.23462097 131.02659607 133.3374939 C134.57682109 142.85732968 138.115696 152.38136346 141.65234375 161.90625 C141.94019178 162.68145304 142.22803982 163.45665607 142.52461052 164.25535011 C145.38974344 171.97163387 148.25422013 179.68816099 151.11785793 187.40499973 C152.18570221 190.28235136 153.25386615 193.15958426 154.32208061 196.03679848 C154.83874376 197.42868638 155.35525179 198.82063188 155.8715992 200.21263695 C158.48683395 207.26289994 161.11160608 214.30907261 163.77246094 221.34228516 C164.19707611 222.46617142 164.62169128 223.59005768 165.05917358 224.7480011 C165.84661116 226.82902393 166.63682783 228.90899812 167.43032837 230.98771667 C167.94313858 232.34308281 167.94313858 232.34308281 168.46630859 233.72583008 C168.76459564 234.50879959 169.06288269 235.2917691 169.37020874 236.09846497 C170 238 170 238 170 240 C170.66 240 171.32 240 172 240 C172.26683594 238.71810791 172.53367187 237.43621582 172.80859375 236.11547852 C173.94239312 231.02584273 175.45205945 226.10857897 177.0625 221.15234375 C177.3655455 220.20852844 177.668591 219.26471313 177.9808197 218.29229736 C178.98343775 215.17280243 179.99172968 212.05517215 181 208.9375 C181.71595903 206.71342074 182.43152683 204.4892155 183.14672852 202.26489258 C184.65705466 197.56978765 186.169662 192.87542663 187.68408203 188.18164062 C189.94948762 181.15920459 192.20815608 174.13461676 194.46484375 167.109375 C195.20890001 164.79329331 195.95295926 162.47721259 196.69702148 160.16113281 C197.06608612 159.01229614 197.43515076 157.86345947 197.81539917 156.67980957 C199.69899133 150.81751381 201.58391061 144.95564484 203.46875 139.09375 C204.60141677 135.57080626 205.73405995 132.04785493 206.86669922 128.52490234 C207.62349331 126.17104774 208.38032938 123.81720664 209.13720703 121.46337891 C218.18108989 93.33678662 227.2005317 65.20416845 236 37 C229.40087534 34.25439162 222.77547501 31.88706295 215.9375 29.8125 C214.25825684 29.30098451 212.57982083 28.78680904 210.90234375 28.26953125 C210.17523193 28.04885986 209.44812012 27.82818848 208.69897461 27.60083008 C207 27 207 27 206 26 C206 17.42 206 8.84 206 0 C241.97 0 277.94 0 315 0 C315 8.58 315 17.16 315 26 C310.7838092 27.4283526 306.56688112 28.85390875 302.34741211 30.27246094 C300.91229357 30.75586246 299.47771771 31.24087817 298.04370117 31.72753906 C295.98236386 32.42678121 293.91914458 33.12019477 291.85546875 33.8125 C290.61434326 34.23144531 289.37321777 34.65039062 288.09448242 35.08203125 C285 36 285 36 282 36 C281.8341037 36.57898544 281.6682074 37.15797089 281.49728394 37.75450134 C279.46336897 44.70627446 277.09911256 51.50758675 274.6328125 58.31640625 C274.20620834 59.50022888 273.77960419 60.68405151 273.34007263 61.90374756 C272.18076576 65.11972669 271.01777615 68.33436219 269.85387039 71.54867935 C269.11794864 73.58198243 268.38312974 75.61568083 267.64865112 77.64950562 C260.27460397 98.06697076 252.80135094 118.44638891 245.27008057 138.806427 C238.48437144 157.15789704 231.8243214 175.55139715 225.22686005 193.97108841 C160.70342115 374.0777729 160.70342115 374.0777729 125.6875 391.3125 C106.87038508 399.28695863 83.25770831 400.41963654 64 393 C50.5702941 387.23680609 39.5984221 379.39354512 33 366 C28.28821309 353.03839401 29.12884863 340.34960977 34.6875 327.75 C39.10135556 319.69429403 46.11662554 314.30484032 54.7265625 311.421875 C66.23309753 309.2866417 76.97951486 310.57404198 86.875 316.8125 C93.55107266 323.68492774 94.40936653 331.00708349 94.3515625 340.24609375 C93.4932882 349.41055601 89.28182426 357.39937506 82.25 363.3125 C81.5075 363.869375 80.765 364.42625 80 365 C83.57338844 369.52629202 86.62318515 370.9692145 92.3203125 371.83984375 C99.61113874 372.27559284 105.89191695 370.37581435 111.78125 366.0625 C127.91602899 351.06397305 134.13276026 326.11261367 141 306 C141.39396973 305.00766357 141.78793945 304.01532715 142.19384766 302.99291992 C143.96276138 296.4256536 140.84101134 290.76106778 138.2734375 284.80078125 C137.89405029 283.9059201 137.51466309 283.01105896 137.1237793 282.08908081 C135.88043931 279.16084879 134.62782023 276.236687 133.375 273.3125 C132.50418268 271.26691162 131.63390818 269.22109208 130.76416016 267.17504883 C128.18478018 261.1129772 125.59340463 255.056082 123 249 C122.30199535 247.3682017 121.60407241 245.73636843 120.90625 244.10449219 C118.45966384 238.38449413 116.01040436 232.66565231 113.55493164 226.94946289 C108.94902286 216.22692323 104.37393115 205.49153217 99.8125 194.75 C99.46198578 193.92463745 99.11147156 193.0992749 98.75033569 192.24890137 C97.30151499 188.83725693 95.85273402 185.42559562 94.40406799 182.0138855 C90.00409317 171.65273002 85.59572759 161.29514627 81.1875 150.9375 C80.34504758 148.95792835 79.50259968 146.97835478 78.66015625 144.9987793 C76.10686937 138.99914426 73.55344717 132.99956682 71 127 C69.29425653 122.99219359 67.58852522 118.984382 65.8828125 114.9765625 C65.46200409 113.98781631 65.04119568 112.99907013 64.6076355 111.98036194 C61.29019057 104.18538177 57.97360402 96.39003659 54.65725708 88.59458923 C52.18520402 82.78420043 49.71155124 76.97449552 47.23677063 71.16526794 C45.63953935 67.41547029 44.0432301 63.66528059 42.44711304 59.91500854 C41.69689979 58.15288821 40.94627601 56.3909426 40.19522095 54.62918091 C39.16684412 52.21678014 38.1398929 49.80377737 37.11328125 47.390625 C36.81015015 46.6805278 36.50701904 45.9704306 36.19470215 45.23881531 C35.03596896 42.51180468 33.93748593 39.81245778 33 37 C30.55213667 35.94825355 28.21520105 35.09603184 25.68359375 34.30078125 C24.95253922 34.0608696 24.22148468 33.82095795 23.46827698 33.57377625 C21.1281932 32.80869751 18.78310065 32.06047346 16.4375 31.3125 C14.85185592 30.79732338 13.26656419 30.28106089 11.68164062 29.76367188 C7.79224939 28.49437343 3.89653913 27.24799432 0 26 C0 17.42 0 8.84 0 0 Z " fill="#4E36EC" transform="translate(1408,6)"/>
<path d="M0 0 C2.17198187 0.00315589 4.34258965 -0.02039208 6.5144043 -0.0456543 C32.11942019 -0.16137746 58.2147436 7.83074647 77.37182617 25.31567383 C78.28254883 26.10651367 78.28254883 26.10651367 79.21166992 26.91333008 C106.2510455 51.86803724 112.57905384 94.9571213 114.27595901 129.8116684 C114.58381625 137.85275584 114.56544771 145.90511866 114.60162163 153.95099258 C114.61828436 157.52669231 114.64152362 161.10229731 114.66651917 164.677948 C114.73663488 174.83236841 114.79738961 184.98682427 114.84863281 195.14135742 C114.88059419 201.38443839 114.92189458 207.62740254 114.9688282 213.87038803 C114.98472393 216.23121913 114.99710192 218.59207688 115.0057354 220.95294571 C114.22018793 243.51751521 114.22018793 243.51751521 121.37182617 264.31567383 C125.52028667 268.21271248 129.47873878 268.4630467 135.00854492 268.63208008 C136.30727539 268.67397461 137.60600586 268.71586914 138.9440918 268.7590332 C140.31583378 268.7988437 141.68757861 268.83855599 143.05932617 268.87817383 C144.44280262 268.92138218 145.82626644 268.96499721 147.2097168 269.0090332 C150.59696331 269.11525348 153.98438127 269.21598071 157.37182617 269.31567383 C157.37182617 275.91567383 157.37182617 282.51567383 157.37182617 289.31567383 C136.42682502 297.95904082 101.20199881 312.38120686 78.37182617 303.31567383 C72.82548507 300.27631762 68.54535273 296.37200512 66.37182617 290.31567383 C63.28479028 278.77405317 62.20697383 267.64966537 62.30932617 255.75317383 C62.31383789 254.74448242 62.31834961 253.73579102 62.32299805 252.6965332 C62.33465848 250.23618236 62.35102239 247.77596144 62.37182617 245.31567383 C61.71182617 245.31567383 61.05182617 245.31567383 60.37182617 245.31567383 C60.12561523 246.02336914 59.8794043 246.73106445 59.62573242 247.46020508 C49.48753043 270.54751243 22.92980699 288.31797074 0.37182617 297.31567383 C-26.6750128 307.12074505 -57.86464712 309.42253957 -84.50317383 296.97192383 C-100.22823501 288.12657691 -110.7287703 274.10509678 -115.59692383 256.88989258 C-120.63675641 235.16728086 -117.99021055 212.80207127 -106.31567383 193.62817383 C-81.31202846 156.12270578 -28.99346075 144.53178331 12.30932617 136.06567383 C13.12295624 135.8988208 13.9365863 135.73196777 14.77487183 135.56005859 C23.59724723 133.76263369 32.43594347 132.08551693 41.31323242 130.58129883 C42.06467026 130.45261414 42.81610809 130.32392944 43.59031677 130.19134521 C46.92028991 129.64053302 49.98421658 129.31567383 53.37182617 129.31567383 C49.4793975 78.90598367 49.4793975 78.90598367 22.74682617 38.31567383 C11.08102211 29.82349376 -2.38258369 27.02633786 -16.62817383 28.31567383 C-27.10328453 30.07255919 -37.71633161 32.85593688 -45.62817383 40.31567383 C-46.65544013 41.96567435 -47.65937227 43.63068086 -48.62817383 45.31567383 C-48.09708008 45.8493457 -47.56598633 46.38301758 -47.01879883 46.93286133 C-38.60162775 55.81082645 -35.20296965 65.14884066 -35.35083008 77.33911133 C-36.11020635 85.48903691 -39.37307367 92.95798632 -45.62817383 98.31567383 C-54.92319632 105.15630367 -64.17653863 107.36406297 -75.62817383 106.31567383 C-85.62886825 104.34147334 -92.75919136 99.65730266 -98.62817383 91.31567383 C-104.60081479 81.17444475 -103.92772035 67.78229908 -101.96801758 56.52270508 C-97.02201453 38.60147327 -83.36260035 25.64165599 -67.73950195 16.47680664 C-47.01932786 5.08166927 -23.50589068 -0.07104657 0 0 Z M-41.37426758 184.87817383 C-51.42822293 195.75108221 -56.02687318 209.95965203 -55.77661133 224.67504883 C-55.02378324 238.06746425 -52.46965406 250.38351769 -42.94848633 260.33911133 C-32.91613839 268.88518549 -22.66938276 270.14540606 -9.98364258 269.5378418 C4.99255985 268.12528539 19.37588305 259.08552064 30.37182617 249.31567383 C31.00733398 248.75106445 31.6428418 248.18645508 32.29760742 247.60473633 C49.96107538 230.92039631 54.3721554 207.87173336 55.55932617 184.64770508 C55.77871377 172.51282841 54.44952685 160.3896475 53.37182617 148.31567383 C24.13400504 148.31567383 -20.38174943 164.93022721 -41.37426758 184.87817383 Z " fill="#4E36EC" transform="translate(687.628173828125,0.684326171875)"/>
<path d="M0 0 C78.54 0 157.08 0 238 0 C238 35 238 35 232.8125 43.625 C231.14363454 45.23125855 229.4732773 46.83833908 227.73193359 48.36572266 C224.59389232 51.32682335 222.1714297 54.84517077 219.625 58.3125 C218.53678017 59.7483161 217.44560629 61.18189784 216.3515625 62.61328125 C215.80274414 63.33338379 215.25392578 64.05348633 214.68847656 64.79541016 C211.81465985 68.54766072 208.90684551 72.27331625 206 76 C199.77629456 83.9829165 193.62039314 92.01592806 187.47998047 100.06298828 C183.66746461 105.05284325 179.8314782 110.02470368 176 115 C174.75233604 116.62151985 173.50491248 118.24322434 172.25756836 119.86499023 C171.41863284 120.95572042 170.57960276 122.04637788 169.74047852 123.13696289 C167.70570351 125.78157716 165.67218697 128.42713386 163.640625 131.07421875 C158.84624905 137.31787502 154.02588912 143.54038067 149.1875 149.75 C142.90305059 157.8175508 136.68354062 165.93317278 130.47998047 174.06298828 C127.45661906 178.01999082 124.41727147 181.96467076 121.37890625 185.91015625 C119.80188021 187.95847742 118.22634141 190.00794455 116.65234375 192.05859375 C111.8543524 198.30768492 107.02989136 204.53524417 102.1875 210.75 C95.90755395 218.8117697 89.69234385 226.92146925 83.49316406 235.04541016 C81.20955065 238.03471836 78.91845622 241.01823961 76.625 244 C75.89539062 244.94875 75.16578125 245.8975 74.4140625 246.875 C71.28594822 250.92433887 68.14144744 254.96099614 65 259 C106.91 259.33 148.82 259.66 192 260 C192.66 254.39 193.32 248.78 194 243 C194.61851488 238.45576014 195.24922134 233.91677377 195.91015625 229.37890625 C196.16870644 227.59092873 196.16870644 227.59092873 196.43247986 225.76683044 C196.79179236 223.28733682 197.15227438 220.8080124 197.51391602 218.32885742 C198.06888372 214.51867197 198.61760027 210.70761782 199.16601562 206.89648438 C199.51785477 204.47390393 199.87005466 202.05137584 200.22265625 199.62890625 C200.46798851 197.9197982 200.46798851 197.9197982 200.71827698 196.17616272 C200.87191208 195.13004318 201.02554718 194.08392365 201.18383789 193.00610352 C201.31770401 192.08475113 201.45157013 191.16339874 201.5894928 190.21412659 C202 188 202 188 203 186 C215.21 186 227.42 186 240 186 C240 221.64 240 257.28 240 294 C158.49 294 76.98 294 -7 294 C-7 256.40043526 -7 256.40043526 2.21484375 246.734375 C2.83858887 246.13431641 3.46233398 245.53425781 4.10498047 244.91601562 C7.49507504 241.4883601 10.28896744 237.59249146 13.1875 233.75 C14.36069408 232.23887326 15.53641652 230.72970556 16.71484375 229.22265625 C21.16966314 223.50201466 25.58635594 217.75244943 30 212 C36.24233341 203.8641588 42.51849483 195.75591816 48.81835938 187.66455078 C53.90460897 181.12924698 58.95892306 174.57020361 64 168 C70.24233341 159.8641588 76.51849483 151.75591816 82.81835938 143.66455078 C87.90460897 137.12924698 92.95892306 130.57020361 98 124 C104.24233341 115.8641588 110.51849483 107.75591816 116.81835938 99.66455078 C121.90460897 93.12924698 126.95892306 86.57020361 132 80 C138.23564224 71.87287962 144.50382565 63.77233841 150.79858398 55.69091797 C155.2940748 49.91656417 159.7595892 44.12001477 164.20703125 38.30859375 C166 36 166 36 167 35 C128.72 35 90.44 35 51 35 C46.71 58.1 42.42 81.2 38 105 C25.46 105 12.92 105 0 105 C0 70.35 0 35.7 0 0 Z " fill="#4E36EB" transform="translate(1759,6)"/>
<path d="M0 0 C0.7700235 0.00182281 1.540047 0.00364563 2.33340454 0.00552368 C13.7152622 0.05087326 24.68241812 0.47407156 35.75 3.3125 C36.41370605 3.47878906 37.07741211 3.64507812 37.76123047 3.81640625 C52.8246615 7.69632648 66.67339533 14.4743937 78.75 24.3125 C79.57757813 24.97636719 80.40515625 25.64023437 81.2578125 26.32421875 C106.65578674 47.86074549 117.22955093 80.12513 120.18579102 112.32983398 C121.36589834 126.76948603 122.28666741 143.16583035 118.75 157.3125 C56.38 157.3125 -5.99 157.3125 -70.25 157.3125 C-68.86357506 186.42742372 -66.85203135 218.50802432 -46.25 241.3125 C-45.68152344 241.98410156 -45.11304688 242.65570313 -44.52734375 243.34765625 C-36.36885709 252.33758104 -24.75287369 257.89955945 -13.25 261.3125 C-12.56292969 261.52519531 -11.87585938 261.73789062 -11.16796875 261.95703125 C13.95734246 268.63469522 42.49673713 261.90348218 64.58691406 249.26123047 C75.08059271 242.81029721 86.34335151 234.23632243 93.75 224.3125 C96.75825502 224.90285931 98.64607595 225.75674898 101.02734375 227.67578125 C101.62353516 228.15080078 102.21972656 228.62582031 102.83398438 229.11523438 C103.44564453 229.61345703 104.05730469 230.11167969 104.6875 230.625 C105.29529297 231.11162109 105.90308594 231.59824219 106.52929688 232.09960938 C108.27422876 233.49819016 110.0123421 234.90490002 111.75 236.3125 C113.41601891 237.64664263 115.0824076 238.98032466 116.75 240.3125 C106.37671173 263.15469033 78.57177547 282.544844 56.75 293.3125 C55.60917969 293.87582031 54.46835937 294.43914062 53.29296875 295.01953125 C37.79577987 301.88977772 19.65487864 305.01291987 2.75 305.3125 C1.69039062 305.35117187 0.63078125 305.38984375 -0.4609375 305.4296875 C-24.21175221 305.92795634 -46.91229909 301.82877064 -68.25 291.3125 C-69.77560547 290.57 -69.77560547 290.57 -71.33203125 289.8125 C-77.97403124 286.39396015 -83.59553527 282.16942533 -89.25 277.3125 C-90.48556641 276.29542969 -90.48556641 276.29542969 -91.74609375 275.2578125 C-118.74121622 252.26352722 -128.52095692 216.42590055 -131.5 182.375 C-135.20616731 134.1176132 -129.55971955 80.63389635 -97.65625 42.04296875 C-71.65334484 12.5364254 -39.11665223 -0.192511 0 0 Z M-24.25 36.3125 C-25.22839844 36.7146875 -26.20679688 37.116875 -27.21484375 37.53125 C-44.31004846 45.29199867 -54.75872405 60.13758124 -61.25 77.3125 C-64.31823442 86.19476488 -66.40688113 95.31023257 -68 104.5625 C-68.11569336 105.23385986 -68.23138672 105.90521973 -68.35058594 106.59692383 C-69.43775263 113.51232838 -69.74618899 120.2591458 -70.25 127.3125 C-27.68 127.3125 14.89 127.3125 58.75 127.3125 C59.105207 84.3494957 59.105207 84.3494957 39.3125 48.0625 C27.80975753 37.15775943 13.40896345 32.90585477 -2.125 33 C-3.58462158 33.00845947 -3.58462158 33.00845947 -5.07373047 33.01708984 C-11.86909187 33.13222682 -17.93294067 33.63560808 -24.25 36.3125 Z " fill="#4E36EC" transform="translate(409.25,0.6875)"/>
<path d="M0 0 C39.27 0 78.54 0 119 0 C119 8.58 119 17.16 119 26 C107.75 31.625 107.75 31.625 102.375 33.8125 C100.83972656 34.44091797 100.83972656 34.44091797 99.2734375 35.08203125 C98.52320313 35.38496094 97.77296875 35.68789063 97 36 C99.71709868 40.16249593 102.5744201 44.1325184 105.625 48.0625 C106.51307336 49.20959475 107.40109267 50.35673135 108.2890625 51.50390625 C108.73926758 52.08414551 109.18947266 52.66438477 109.65332031 53.26220703 C111.77662874 56.00218335 113.88795451 58.75133914 116 61.5 C116.83327034 62.58338179 117.66660381 63.66671502 118.5 64.75 C133.5 84.25 133.5 84.25 134.75146484 85.87695312 C135.57985237 86.95382451 136.40830228 88.03064789 137.23681641 89.10742188 C139.39635041 91.9142207 141.55460149 94.72199335 143.7109375 97.53125 C144.37996094 98.40233398 144.37996094 98.40233398 145.0625 99.29101562 C146.2998068 100.90209218 147.53663757 102.51353429 148.7734375 104.125 C150.24567681 106.02599672 151.75081781 107.90200638 153.2890625 109.75 C155 112 155 112 155 114 C158.6388891 110.53378226 161.55524085 107.02105735 164.4375 102.875 C165.31503362 101.62533707 166.19402167 100.37669461 167.07421875 99.12890625 C167.5439209 98.46262207 168.01362305 97.79633789 168.49755859 97.10986328 C171.20292694 93.31074185 173.97796229 89.56310736 176.75 85.8125 C177.34224365 85.01054199 177.9344873 84.20858398 178.54467773 83.38232422 C179.7580043 81.73985255 180.9716291 80.09760117 182.18554688 78.45556641 C185.70245758 73.6960013 189.21212608 68.93108176 192.71826172 64.16357422 C195.79499169 59.98210943 198.88467331 55.8109953 201.9921875 51.65234375 C202.641875 50.77964844 203.2915625 49.90695313 203.9609375 49.0078125 C205.21488611 47.32393865 206.47256703 45.64283628 207.734375 43.96484375 C208.29382812 43.21203125 208.85328125 42.45921875 209.4296875 41.68359375 C209.92710449 41.01900146 210.42452148 40.35440918 210.93701172 39.66967773 C212.17901436 38.04870426 212.17901436 38.04870426 212 36 C211.12674072 35.7326001 210.25348145 35.4652002 209.35375977 35.18969727 C206.12332289 34.19888065 202.8937752 33.20526524 199.66479492 32.2097168 C198.26540335 31.77889726 196.86566391 31.34920601 195.46557617 30.9206543 C193.45659987 30.30551642 191.44889752 29.68637072 189.44140625 29.06640625 C188.23170166 28.69459229 187.02199707 28.32277832 185.77563477 27.93969727 C183 27 183 27 182 26 C182 17.42 182 8.84 182 0 C217.64 0 253.28 0 290 0 C290 8.58 290 17.16 290 26 C278.88162569 30.44734972 278.88162569 30.44734972 274.81640625 31.46484375 C263.0018109 34.70150676 256.13790437 38.11347377 249.22265625 48.26953125 C247.1377839 51.22032502 244.74218941 53.89982353 242.375 56.625 C239.05865721 60.52627254 235.79168295 64.46356855 232.5625 68.4375 C228.60491812 73.30129025 224.53457554 78.05881231 220.44165039 82.80834961 C217.41054711 86.33298919 214.43014684 89.89039882 211.5 93.5 C208.06791987 97.7279248 204.55448829 101.8752789 201 106 C196.6927486 110.99911421 192.47219828 116.05652969 188.3125 121.1796875 C183.94234795 126.50950132 179.46543508 131.7499838 175 137 C176.28812524 139.7310948 177.70331137 142.08767248 179.546875 144.4765625 C180.05468506 145.137771 180.56249512 145.79897949 181.08569336 146.48022461 C181.63491455 147.18800049 182.18413574 147.89577637 182.75 148.625 C183.32564697 149.37209229 183.90129395 150.11918457 184.49438477 150.88891602 C186.32548211 153.2624874 188.16195946 155.63180223 190 158 C190.57927246 158.74717285 191.15854492 159.4943457 191.75537109 160.26416016 C195.23603005 164.75167828 198.72450436 169.23306486 202.21630859 173.71191406 C205.22953417 177.57722341 208.24020532 181.44451873 211.25 185.3125 C212.1315979 186.44546509 212.1315979 186.44546509 213.03100586 187.60131836 C217.17004065 192.92409962 221.28408662 198.26538732 225.390625 203.61328125 C230.28948344 209.98141509 235.23606799 216.31273824 240.17236328 222.65185547 C241.98986598 224.98697983 243.80575788 227.3233471 245.62109375 229.66015625 C246.21293457 230.42175049 246.80477539 231.18334473 247.41455078 231.96801758 C248.58660303 233.47657891 249.75816123 234.98552425 250.92919922 236.49487305 C253.70688854 240.07076259 256.4979531 243.63421351 259.32421875 247.171875 C259.84024658 247.81995117 260.35627441 248.46802734 260.88793945 249.13574219 C261.85496728 250.34805945 262.82595607 251.55723136 263.80151367 252.76269531 C267 256.77767416 267 256.77767416 267 259 C268.25683594 259.25523437 269.51367188 259.51046875 270.80859375 259.7734375 C276.36176388 261.00747531 281.68574221 262.78449281 287.0625 264.625 C290.341875 265.73875 293.62125 266.8525 297 268 C297 276.58 297 285.16 297 294 C255.75 294 214.5 294 172 294 C172 285.42 172 276.84 172 268 C181.57 264.7 191.14 261.4 201 258 C195.95226926 250.40825996 195.95226926 250.40825996 190.375 243.4375 C186.43495361 238.82014015 182.73857894 234.06395195 179.125 229.1875 C174.65965163 223.166176 170.06781328 217.27144421 165.36206055 211.43652344 C162.16978966 207.47428121 159.02891851 203.47889207 155.9375 199.4375 C152.31746891 194.7085777 148.67373544 189.99984614 145 185.3125 C144.53070068 184.71171631 144.06140137 184.11093262 143.57788086 183.49194336 C141.79683335 181.2236374 140.04134845 179.04134845 138 177 C129.64584192 187.89836407 121.34281964 198.82789034 113.22216797 209.90161133 C109.0189956 215.629697 104.77050335 221.32196518 100.5 227 C95.34799811 233.85516532 90.21960226 240.72704523 85.125 247.625 C84.52365234 248.43710938 83.92230469 249.24921875 83.30273438 250.0859375 C82.75166016 250.83359375 82.20058594 251.58125 81.6328125 252.3515625 C81.14699707 253.00979004 80.66118164 253.66801758 80.16064453 254.34619141 C78.93650936 256.00386194 78.93650936 256.00386194 78 258 C93.345 262.95 93.345 262.95 109 268 C109 276.58 109 285.16 109 294 C73.03 294 37.06 294 0 294 C0 285.42 0 276.84 0 268 C2.13339844 267.32195312 4.26679687 266.64390625 6.46484375 265.9453125 C8.5625917 265.25428964 10.65644349 264.55248947 12.75024414 263.84960938 C14.18859489 263.37310251 15.63064199 262.90758713 17.07641602 262.45410156 C27.25269765 259.25130651 33.50434048 255.85121878 40 247 C41.41046618 245.26577194 42.82651275 243.53605617 44.25 241.8125 C44.99121094 240.89726562 45.73242188 239.98203125 46.49609375 239.0390625 C49.37987673 235.53893276 52.33601435 232.10879321 55.3125 228.6875 C55.86357422 228.05400635 56.41464844 227.4205127 56.98242188 226.76782227 C58.10162485 225.48168345 59.22092837 224.19563212 60.34033203 222.90966797 C66.4607846 215.86727609 72.56030337 208.80997199 78.4375 201.5625 C83.59451086 195.21397761 88.9794436 189.06906784 94.34912109 182.90087891 C97.93967053 178.76659646 101.5010443 174.60741886 105.0546875 170.44140625 C107.08616689 168.06044701 109.13541594 165.69625007 111.1953125 163.33984375 C112.21362244 162.16413246 113.23185449 160.98835369 114.25 159.8125 C114.72840332 159.27157715 115.20680664 158.7306543 115.69970703 158.17333984 C118.47356604 155.05722675 118.47356604 155.05722675 119 151 C117.30881576 148.68811516 115.58512486 146.50525912 113.75 144.3125 C112.63980263 142.95746698 111.5317946 141.60063778 110.42578125 140.2421875 C109.85553223 139.5419043 109.2852832 138.84162109 108.69775391 138.12011719 C106.02859812 134.78693502 103.4811071 131.36689465 100.9375 127.9375 C96.7056683 122.24731823 92.39412634 116.63241162 87.99707031 111.0690918 C84.62207764 106.79826025 81.29206881 102.49496025 77.97998047 98.17504883 C74.34116186 93.43349328 70.67245371 88.71553497 67 84 C62.10095368 77.70799085 57.21878481 71.40378921 52.36328125 65.078125 C50.73822015 62.9615165 49.11106948 60.84670141 47.48046875 58.734375 C47.05475586 58.18241455 46.62904297 57.6304541 46.19042969 57.06176758 C43.83806345 54.00695501 43.83806345 54.00695501 41.45629883 50.97509766 C40 49 40 49 38.25268555 46.14599609 C31.99411089 36.54015718 25.57410714 33.95761512 14.9375 30.75 C13.48381019 30.27847164 12.03131905 29.80323111 10.58007812 29.32421875 C7.06592035 28.16552896 3.54032419 27.0866977 0 26 C0 17.42 0 8.84 0 0 Z " fill="#4E36EC" transform="translate(1105,6)"/>
<path d="M0 0 C0.81163605 -0.00570007 1.62327209 -0.01140015 2.45950317 -0.01727295 C4.17220787 -0.02666685 5.88493018 -0.03323443 7.59765625 -0.03710938 C10.15398923 -0.04671965 12.70948325 -0.0777567 15.265625 -0.109375 C43.56739979 -0.2917807 72.44850371 6.82039613 93.74609375 26.4375 C106.32193878 39.37265489 110.81456221 55.31098122 110.67431641 72.97216797 C110.36235315 84.60330874 107.12372657 93.88733092 98.5703125 102.015625 C90.15370519 108.85509439 80.88274165 109.17845949 70.3203125 108.203125 C61.21655169 106.29372198 54.20120017 101.58881015 48.8828125 93.953125 C44.8485493 86.85282177 45.3387667 77.1705426 46.8984375 69.27734375 C49.28863001 62.46529509 53.93184583 56.92825598 59.3203125 52.203125 C62.10546875 50.921875 62.10546875 50.921875 64.3203125 50.203125 C55.2130152 38.66526283 43.73913478 32.64917521 29.3203125 30.203125 C28.3303125 30.03490234 28.3303125 30.03490234 27.3203125 29.86328125 C7.61946189 27.1394894 -16.8412231 28.7797706 -33.1796875 41.015625 C-37.34864108 44.63051992 -40.37595839 48.18361768 -42.6796875 53.203125 C-42.99679688 53.8940625 -43.31390625 54.585 -43.640625 55.296875 C-47.60894644 65.92760767 -47.26029394 80.03033327 -43.1328125 90.5234375 C-30.70934908 113.43337273 0.49752324 119.40901829 23.32971191 126.89656067 C98.99332235 151.75697258 98.99332235 151.75697258 116.2578125 184.078125 C124.86801584 202.72002751 124.83321645 225.02790132 118.25390625 244.33203125 C110.83999529 263.49075166 96.9815098 277.26098247 79.3203125 287.203125 C78.35867187 287.75355469 77.39703125 288.30398438 76.40625 288.87109375 C40.03144613 308.36117461 -10.53253728 310.68685827 -49.6796875 299.203125 C-70.63365312 292.77112054 -89.77804343 282.31280702 -101.6796875 263.203125 C-106.67502942 253.45671215 -109.07076473 243.80837001 -108.9921875 232.890625 C-108.98654785 232.06320801 -108.9809082 231.23579102 -108.97509766 230.38330078 C-108.7398007 218.43440888 -106.09876415 209.02090207 -97.79296875 200.19921875 C-90.57485616 193.40653519 -82.10210504 190.8163574 -72.265625 190.99609375 C-61.84360752 191.83048488 -53.31453922 195.32962074 -46.01953125 202.93359375 C-40.58200529 209.86128718 -40.15930439 217.33799556 -41.0234375 225.83203125 C-43.02824967 236.13056043 -49.22172723 244.08823091 -56.6796875 251.203125 C-57.3396875 251.533125 -57.9996875 251.863125 -58.6796875 252.203125 C-54.51917045 261.51862416 -44.74502911 265.82019553 -35.74560547 269.44384766 C-11.69970816 278.28132587 17.6069083 278.08927661 41.3203125 268.203125 C51.37301977 263.54257069 60.54781773 257.56202838 65.3203125 247.203125 C68.68761031 237.2909385 68.96324001 225.4482827 64.75390625 215.71875 C57.68062447 203.3067787 45.3377682 196.01062569 32.44921875 190.80078125 C31.35009911 190.35283707 31.35009911 190.35283707 30.22877502 189.89584351 C22.92963661 186.96845457 15.50469812 184.47754522 8.02368164 182.06143188 C4.09436543 180.78978094 0.17399447 179.49117929 -3.74609375 178.19140625 C-4.51853424 177.93532089 -5.29097473 177.67923553 -6.08682251 177.41539001 C-73.86685039 154.85116913 -73.86685039 154.85116913 -90.171875 124.41796875 C-99.35835788 105.09373998 -101.1759371 80.68726687 -94.6796875 60.203125 C-94.339375 59.11257812 -93.9990625 58.02203125 -93.6484375 56.8984375 C-90.8332143 48.81418169 -86.76448311 42.06050872 -81.6796875 35.203125 C-81.19757813 34.54699219 -80.71546875 33.89085937 -80.21875 33.21484375 C-63.72160891 12.47421839 -36.16747266 3.49241989 -10.842453 0.41230774 C-7.22981082 0.06289289 -3.62739263 0.02040986 0 0 Z " fill="#4E36EC" transform="translate(109.6796875,0.796875)"/>
<path d="M0 0 C11.05167126 7.97642361 16.35591933 18.99838762 18.93359375 32.12109375 C20.11324678 45.33320771 18.57002353 57.82936361 10.24609375 68.62109375 C8.10518584 70.99816896 5.90340362 72.84585543 3.24609375 74.62109375 C2.65957031 75.03359375 2.07304688 75.44609375 1.46875 75.87109375 C-6.86569203 80.62420129 -18.79188062 79.86195869 -27.92578125 77.9609375 C-35.9152 75.09516773 -41.81672076 69.9504836 -45.69140625 62.43359375 C-48.34132042 56.7295412 -48.91345237 52.02197184 -48.87890625 45.74609375 C-48.88277344 45.05128906 -48.88664063 44.35648438 -48.890625 43.640625 C-48.88288223 39.52921469 -48.55030874 35.65367145 -47.75390625 31.62109375 C-51.33136194 29.83236591 -54.97108084 30.69021038 -58.75390625 31.62109375 C-76.45339548 39.66911934 -87.35516015 61.68256804 -94.03637695 78.86572266 C-97.63015374 88.58719342 -100.32131162 98.55435648 -102.75390625 108.62109375 C-102.9226123 109.31009766 -103.09131836 109.99910156 -103.26513672 110.70898438 C-107.96600325 130.36255337 -108.06864703 150.64118607 -108.16796875 170.734375 C-108.18673198 173.17059446 -108.20630897 175.60680777 -108.22665405 178.04301453 C-108.27743766 184.38026259 -108.31734703 190.7175316 -108.35479736 197.05487061 C-108.39517896 203.55160472 -108.44611336 210.04825578 -108.49609375 216.54492188 C-108.59221416 229.23691937 -108.67717795 241.92896493 -108.75390625 254.62109375 C-107.87334564 254.74290009 -106.99278503 254.86470642 -106.08554077 254.99020386 C-98.54336162 256.04813364 -91.03746955 257.2133164 -83.54296875 258.56640625 C-82.07444962 258.82851395 -82.07444962 258.82851395 -80.57626343 259.09591675 C-77.51006735 259.64371154 -74.44448076 260.1948324 -71.37890625 260.74609375 C-69.27477938 261.1226183 -67.17061299 261.49892206 -65.06640625 261.875 C-59.96170299 262.78741546 -54.85784091 263.70434692 -49.75390625 264.62109375 C-49.75390625 273.20109375 -49.75390625 281.78109375 -49.75390625 290.62109375 C-102.55390625 290.62109375 -155.35390625 290.62109375 -209.75390625 290.62109375 C-209.75390625 282.04109375 -209.75390625 273.46109375 -209.75390625 264.62109375 C-204.09444428 263.1947667 -198.43466487 261.76986022 -192.77392578 260.34863281 C-190.8472806 259.86445313 -188.92084718 259.37942996 -186.99462891 258.89355469 C-184.23004166 258.19636079 -181.46471345 257.50217815 -178.69921875 256.80859375 C-177.40227585 256.48048706 -177.40227585 256.48048706 -176.07913208 256.14575195 C-175.27845306 255.94554443 -174.47777405 255.74533691 -173.65283203 255.5390625 C-172.94667755 255.36141357 -172.24052307 255.18376465 -171.51296997 255.00073242 C-169.75390625 254.62109375 -169.75390625 254.62109375 -167.75390625 254.62109375 C-167.75390625 180.37109375 -167.75390625 106.12109375 -167.75390625 29.62109375 C-170.39390625 29.29109375 -173.03390625 28.96109375 -175.75390625 28.62109375 C-178.42610018 28.05414879 -181.06841756 27.4607699 -183.71875 26.80859375 C-184.43752823 26.63481201 -185.15630646 26.46103027 -185.89686584 26.28198242 C-187.39897127 25.9176795 -188.90055088 25.5512021 -190.40161133 25.18261719 C-192.70835781 24.61693674 -195.01709314 24.05998108 -197.32617188 23.50390625 C-198.79048931 23.1476477 -200.25468663 22.79089499 -201.71875 22.43359375 C-202.410327 22.26690186 -203.10190399 22.10020996 -203.81443787 21.9284668 C-208.63864634 20.73635366 -208.63864634 20.73635366 -209.75390625 19.62109375 C-209.75390625 12.03109375 -209.75390625 4.44109375 -209.75390625 -3.37890625 C-181.70390625 -3.37890625 -153.65390625 -3.37890625 -124.75390625 -3.37890625 C-118.81390625 31.76609375 -118.81390625 31.76609375 -112.75390625 67.62109375 C-110.05599339 61.68568545 -107.45898994 55.9490171 -105.06640625 49.93359375 C-99.88770136 37.8055728 -92.51328409 26.47119872 -83.75390625 16.62109375 C-83.01914062 15.79222656 -82.284375 14.96335937 -81.52734375 14.109375 C-60.63090241 -8.11436473 -26.83743996 -17.21890148 0 0 Z " fill="#4E36EC" transform="translate(1072.75390625,9.37890625)"/>
</svg>
