<?xml version="1.0" standalone="no"?>
<!DOCTYPE svg PUBLIC "-//W3C//DTD SVG 20010904//EN"
 "http://www.w3.org/TR/2001/REC-SVG-20010904/DTD/svg10.dtd">
<svg version="1.0" xmlns="http://www.w3.org/2000/svg"
 width="2000.000000pt" height="2000.000000pt" viewBox="0 0 2000.000000 2000.000000"
 preserveAspectRatio="xMidYMid meet">

<g transform="translate(0.000000,2000.000000) scale(0.100000,-0.100000)"
fill="#000000" stroke="none">
<path d="M12285 19988 c-20 -55 -35 -102 -35 -109 0 -4 57 -40 128 -80 70 -39
128 -72 129 -73 2 -1 59 -214 128 -472 75 -279 123 -474 118 -482 -4 -6 -183
-141 -398 -298 l-390 -285 -85 6 c-47 3 -108 8 -136 11 l-51 6 -21 -61 c-15
-46 -18 -63 -9 -67 17 -6 731 -244 733 -244 4 0 44 123 41 126 -1 1 -60 34
-132 74 -71 40 -131 74 -133 75 -3 2 340 261 556 419 51 38 96 66 99 63 9 -10
186 -748 180 -754 -3 -2 -67 3 -142 12 -75 9 -139 14 -141 12 -8 -7 -37 -117
-33 -121 2 -2 198 -68 434 -146 237 -79 435 -145 441 -147 18 -6 58 119 42
129 -7 4 -67 38 -132 75 l-119 68 -138 500 c-76 275 -138 508 -139 517 0 11
108 90 313 229 171 117 344 235 384 262 l72 50 113 -12 c62 -7 124 -14 138
-17 24 -4 27 0 47 59 l20 65 -352 116 c-194 64 -357 116 -363 116 -10 0 -42
-89 -42 -114 0 -6 46 -38 102 -71 56 -33 101 -64 102 -70 0 -8 -531 -385 -586
-415 -14 -9 -25 27 -97 319 -45 181 -81 335 -81 341 0 13 19 12 205 -6 l61 -6
18 57 c10 31 14 61 9 65 -4 4 -195 70 -423 145 -228 76 -418 140 -423 142 -4
2 -9 -2 -12 -9z"/>
<path d="M9570 19761 c-84 -27 -169 -100 -228 -194 -25 -40 -63 -133 -89 -217
-8 -26 -17 3 -62 185 l-42 170 -210 -16 c-116 -9 -212 -19 -215 -22 -3 -2 -2
-27 2 -55 l6 -50 62 -11 c33 -6 82 -14 109 -17 26 -4 47 -8 47 -10 0 -1 20
-254 45 -561 25 -307 45 -568 45 -580 0 -18 -15 -26 -102 -56 l-103 -34 3 -59
c2 -32 6 -61 8 -63 3 -4 611 42 747 56 l57 6 0 51 c0 28 -4 56 -8 63 -4 7 -65
17 -151 24 -129 12 -144 15 -150 34 -4 11 -17 151 -29 310 -17 230 -20 309
-12 383 20 189 74 334 155 421 39 42 54 51 81 51 l34 0 0 -58 c0 -111 58 -172
165 -172 48 0 70 5 95 23 114 77 94 292 -34 372 -42 26 -60 30 -125 32 -42 1
-87 -1 -101 -6z"/>
<path d="M5770 18795 c-198 -54 -400 -221 -459 -381 -61 -161 22 -334 159
-334 116 0 204 114 165 216 -18 47 -71 100 -110 110 -73 18 31 159 151 204
120 44 206 20 315 -89 63 -63 179 -227 179 -252 0 -4 -39 -35 -87 -70 -368
-268 -530 -496 -494 -696 22 -119 103 -238 194 -285 65 -33 185 -37 272 -8
189 63 344 235 391 435 28 119 25 117 78 27 59 -101 103 -142 152 -142 56 0
147 55 246 150 l91 85 -22 43 c-12 23 -24 42 -26 42 -3 0 -32 -13 -65 -30 -80
-40 -110 -39 -149 6 -18 19 -94 160 -170 312 -76 153 -166 318 -199 368 -78
117 -189 222 -278 265 -63 30 -79 33 -174 36 -70 2 -123 -2 -160 -12z m516
-741 c96 -187 106 -293 39 -430 -53 -108 -162 -194 -244 -194 -121 1 -231 140
-231 291 0 77 33 147 109 231 70 77 243 229 256 225 6 -2 38 -57 71 -123z"/>
<path d="M16383 17961 l-41 -46 62 -100 63 -100 -32 -120 c-18 -66 -89 -334
-160 -596 l-128 -476 -189 -196 c-104 -108 -194 -197 -199 -197 -4 0 -56 29
-114 65 -57 36 -109 65 -114 65 -5 0 -27 -20 -49 -45 l-40 -46 294 -284 c161
-157 297 -285 302 -285 4 0 27 20 51 44 l43 44 -71 106 c-39 58 -71 110 -71
116 0 13 411 440 424 440 5 0 252 77 548 170 297 94 547 170 556 170 10 0 60
-25 112 -55 l95 -54 48 47 47 46 -22 22 c-13 13 -120 115 -238 228 l-215 206
-46 -46 -47 -46 61 -99 c33 -55 58 -101 56 -103 -9 -8 -920 -288 -924 -284 -4
4 252 919 260 926 2 3 48 -21 101 -52 53 -31 102 -56 109 -56 11 0 85 81 85
92 0 6 -560 543 -568 544 -4 1 -26 -19 -49 -45z"/>
<path d="M2973 16675 c-202 -45 -411 -247 -479 -460 -30 -95 -34 -233 -9 -330
73 -283 416 -615 715 -691 87 -22 233 -15 311 15 128 49 255 151 344 276 81
114 112 196 124 327 8 89 -2 265 -17 280 -4 4 -34 3 -67 -3 l-60 -12 0 -101
c0 -122 -25 -212 -84 -303 -135 -209 -331 -266 -543 -159 -69 35 -198 124
-198 137 0 5 142 173 316 376 l317 367 -66 62 c-194 184 -412 263 -604 219z
m122 -246 c51 -19 194 -117 224 -153 11 -13 -20 -54 -205 -271 l-219 -255 -61
65 c-188 201 -213 388 -72 541 85 92 209 119 333 73z"/>
<path d="M19040 14270 c-145 -60 -271 -112 -278 -117 -10 -6 -6 -24 19 -84 27
-64 35 -75 53 -72 11 2 106 19 211 38 104 19 193 31 196 27 12 -13 310 -754
305 -759 -2 -2 -445 99 -983 226 -538 127 -986 231 -995 231 -31 0 -153 -59
-151 -72 4 -19 589 -1458 596 -1465 5 -4 573 221 585 232 1 1 -12 39 -29 84
-26 65 -36 81 -53 81 -12 0 -114 -19 -229 -41 -114 -23 -209 -40 -211 -38 -7
7 -366 893 -363 895 1 2 449 -102 995 -231 l992 -234 76 31 c56 23 74 35 71
47 -5 20 -527 1302 -536 1317 -4 7 -97 -26 -271 -96z"/>
<path d="M1006 13545 c-108 -38 -198 -132 -266 -277 -98 -210 -108 -440 -25
-583 73 -127 247 -215 399 -203 139 12 244 95 437 349 166 219 225 265 330
257 75 -5 128 -40 160 -105 21 -41 24 -62 23 -143 -1 -80 -6 -108 -33 -180
-17 -47 -48 -107 -69 -135 -38 -51 -114 -115 -136 -115 -6 0 -17 15 -24 33
-14 39 -66 95 -100 108 -73 28 -149 -5 -189 -80 -75 -144 53 -282 251 -269 93
6 157 40 236 125 180 192 268 563 186 787 -43 118 -99 181 -213 234 -50 23
-70 27 -153 27 -82 0 -103 -4 -151 -26 -80 -38 -186 -143 -307 -304 -121 -162
-192 -239 -244 -266 -84 -43 -221 -9 -273 69 -49 74 -49 192 0 315 36 88 74
140 129 172 46 27 66 26 66 -2 0 -55 112 -130 175 -119 93 18 155 149 110 236
-45 87 -207 135 -319 95z"/>
<path d="M9840 11864 c-603 -36 -1220 -235 -1827 -590 -390 -229 -802 -538
-1148 -864 -130 -122 -395 -398 -395 -410 0 -10 242 -263 360 -376 807 -772
1745 -1291 2601 -1438 454 -79 868 -68 1314 34 150 35 412 113 427 128 6 6
-70 90 -226 249 l-236 240 -103 -52 c-206 -103 -360 -138 -607 -139 -187 0
-268 11 -419 61 -475 155 -830 567 -917 1066 -21 120 -21 334 0 454 96 552
509 983 1056 1105 88 19 133 23 280 23 147 0 192 -4 280 -23 548 -123 958
-551 1056 -1105 22 -121 22 -333 0 -457 -21 -120 -72 -273 -129 -386 l-44 -89
327 -333 327 -333 134 77 c468 268 927 623 1333 1030 76 76 163 167 193 201
l55 63 -27 32 c-56 69 -366 377 -490 487 -860 767 -1782 1228 -2645 1325 -141
16 -419 26 -530 20z"/>
<path d="M9820 10712 c-316 -88 -531 -351 -548 -668 -11 -233 71 -434 243
-592 76 -70 212 -141 316 -166 86 -21 253 -21 338 0 331 82 561 375 561 714 0
319 -201 595 -510 700 -93 32 -307 38 -400 12z"/>
<path d="M798 10630 c-257 -47 -468 -203 -574 -425 -97 -203 -100 -453 -8
-653 106 -233 307 -389 561 -438 403 -77 803 192 888 595 84 398 -156 792
-547 901 -82 23 -248 34 -320 20z"/>
<path d="M18965 10631 c-294 -47 -526 -244 -621 -526 -32 -97 -43 -263 -25
-370 46 -261 237 -491 486 -584 307 -115 653 -24 861 228 226 272 234 675 19
960 -93 122 -250 227 -405 271 -83 23 -237 33 -315 21z"/>
<path d="M17511 7628 c-5 -13 -126 -312 -270 -665 -144 -353 -261 -645 -261
-650 0 -4 125 -58 278 -119 l277 -112 23 57 c13 31 28 66 33 79 8 20 -5 31
-172 143 -102 68 -179 125 -176 132 43 112 302 744 307 750 4 5 254 -378 554
-850 l547 -859 76 -32 c43 -17 79 -30 80 -28 7 7 604 1478 601 1481 -8 7 -580
236 -583 233 -2 -2 -19 -40 -38 -84 l-35 -81 190 -124 c104 -68 192 -127 194
-131 4 -6 -334 -847 -355 -886 -5 -9 -203 294 -555 846 l-547 860 -74 31 c-41
17 -77 31 -80 31 -3 0 -9 -10 -14 -22z"/>
<path d="M1600 7452 c-86 -29 -132 -57 -177 -105 -97 -105 -113 -171 -123
-507 -8 -278 -14 -315 -61 -381 -46 -65 -165 -92 -238 -55 -82 43 -162 163
-196 296 -21 81 -17 219 8 268 l18 32 42 -22 c28 -15 60 -22 98 -22 87 -1 133
39 145 127 6 38 2 56 -20 101 -35 71 -90 101 -171 93 -166 -17 -271 -138 -291
-332 -13 -128 36 -332 119 -489 53 -102 176 -230 258 -270 189 -91 424 -18
509 158 44 93 52 150 59 441 8 304 13 329 69 389 66 70 187 89 267 41 123 -71
204 -333 145 -463 l-20 -44 -31 23 c-44 31 -124 37 -174 13 -74 -35 -95 -146
-42 -226 33 -50 81 -70 148 -65 201 17 317 202 281 450 -35 240 -163 452 -319
529 -57 28 -78 33 -157 35 -68 2 -105 -2 -146 -15z"/>
<path d="M15869 4684 c-107 -102 -212 -203 -234 -225 l-39 -39 44 -45 c24 -25
47 -45 51 -45 4 0 47 23 95 51 48 27 92 51 97 52 11 2 268 -927 257 -931 -7
-3 -910 284 -917 291 -1 2 26 48 61 102 l63 100 -39 45 c-22 25 -44 45 -49 45
-11 0 -569 -534 -569 -544 1 -3 19 -26 41 -51 l39 -45 63 34 c34 19 83 46 108
59 l45 25 580 -178 c318 -97 584 -180 591 -184 20 -11 383 -391 383 -402 0 -5
-32 -57 -71 -116 l-71 -106 45 -45 46 -46 103 97 c57 53 191 181 298 285 l195
189 -39 44 c-22 24 -43 45 -48 47 -4 2 -57 -27 -118 -64 l-111 -68 -50 50
c-28 27 -123 124 -210 216 l-160 167 -156 566 -156 565 62 102 62 101 -42 44
c-24 23 -46 43 -50 43 -4 0 -94 -84 -200 -186z"/>
<path d="M3225 4526 c-194 -37 -391 -158 -572 -351 -247 -262 -274 -546 -78
-820 67 -94 182 -196 269 -239 91 -45 229 -76 344 -76 l82 0 -1 38 c-1 20 -4
51 -8 67 -6 29 -8 30 -79 37 -140 14 -292 97 -378 206 -114 145 -119 309 -14
470 42 66 164 196 179 190 5 -1 149 -166 320 -365 172 -200 316 -363 321 -363
20 0 167 129 221 194 214 259 204 549 -28 805 -157 173 -365 248 -578 207z
m362 -242 c67 -32 136 -109 163 -182 28 -73 23 -151 -15 -228 -28 -57 -110
-152 -175 -204 l-38 -30 -216 250 c-119 138 -216 255 -216 259 0 13 115 85
190 120 116 54 213 59 307 15z"/>
<path d="M13010 2633 c-190 -64 -347 -117 -349 -119 -1 -1 6 -29 16 -61 23
-66 8 -62 181 -49 l102 8 -11 -28 c-6 -16 -58 -168 -115 -338 -58 -170 -108
-315 -113 -323 -6 -12 -63 31 -252 187 -134 111 -255 212 -268 225 l-23 23 98
58 c138 80 131 71 109 144 -10 33 -23 59 -29 57 -6 -2 -200 -67 -431 -143
-231 -76 -421 -140 -423 -141 -8 -3 33 -116 44 -120 6 -2 75 4 152 14 l141 19
363 -289 c200 -159 373 -297 385 -307 l22 -17 -146 -469 c-80 -258 -150 -474
-155 -481 -5 -6 -56 -39 -114 -73 -57 -34 -104 -68 -104 -74 0 -12 30 -107 36
-115 2 -2 733 237 741 243 3 3 -32 115 -38 120 -2 3 -71 -4 -153 -15 -82 -11
-150 -18 -151 -17 -2 2 49 177 114 390 78 262 120 387 128 383 17 -6 593 -487
593 -495 0 -3 -54 -37 -121 -75 -113 -64 -121 -70 -116 -94 10 -48 38 -103 50
-98 7 2 206 68 442 147 237 78 432 144 434 146 4 3 -29 106 -38 116 -3 4 -71
-2 -151 -12 -80 -10 -149 -15 -155 -11 -113 87 -805 629 -817 640 -16 15 -8
43 136 456 l153 440 84 50 c46 28 101 60 121 72 l37 22 -20 60 c-12 34 -26 61
-32 60 -7 0 -167 -53 -357 -116z"/>
<path d="M5902 2465 c-76 -17 -142 -54 -176 -98 -84 -110 -72 -226 29 -285 50
-29 140 -27 182 4 52 39 78 124 59 201 -7 29 -5 32 30 43 120 40 300 -61 338
-191 20 -65 20 -109 2 -196 -14 -64 -67 -223 -84 -250 -5 -9 -34 -4 -107 18
-342 102 -595 120 -746 53 -109 -49 -196 -168 -221 -303 -10 -51 -9 -70 6
-122 30 -109 90 -176 213 -238 89 -44 164 -62 269 -63 109 -1 174 13 273 58
41 19 76 32 78 30 2 -2 -12 -42 -32 -89 -44 -108 -48 -175 -10 -213 41 -41
163 -83 290 -99 28 -3 60 -8 72 -11 18 -3 26 4 43 35 11 22 20 43 20 45 0 3
-32 22 -70 41 -85 43 -98 63 -81 132 7 26 75 176 151 333 77 157 153 326 169
375 60 180 62 340 7 460 -76 164 -263 290 -491 330 -104 18 -130 18 -213 0z
m28 -805 c148 -18 300 -55 300 -73 -1 -27 -81 -191 -124 -251 -74 -103 -170
-159 -295 -172 -70 -8 -172 16 -218 52 -71 54 -91 147 -53 245 41 111 109 174
208 195 73 16 81 16 182 4z"/>
<path d="M8840 1538 c0 -18 -3 -43 -6 -54 -5 -20 4 -25 98 -56 98 -33 103 -36
106 -64 5 -62 -86 -1127 -98 -1134 -7 -4 -52 -13 -100 -20 -48 -7 -92 -15 -98
-19 -8 -5 -27 -120 -20 -122 2 0 183 -15 403 -33 292 -25 402 -30 407 -22 4 6
8 34 8 62 l0 52 -77 20 c-43 12 -108 29 -145 38 -66 16 -68 17 -68 48 0 75 42
528 55 602 32 173 101 328 188 420 68 73 118 101 153 85 21 -9 22 -13 12 -41
-15 -45 -5 -122 22 -160 29 -41 75 -60 142 -60 100 0 157 62 166 180 6 83 -9
130 -57 183 -66 74 -174 102 -277 72 -120 -34 -214 -120 -299 -271 -26 -47
-49 -83 -51 -82 -1 2 -10 86 -19 188 -9 102 -18 186 -18 186 -3 3 -387 34
-409 34 -14 0 -18 -8 -18 -32z"/>
</g>
</svg>
