<?xml version="1.0" standalone="no"?>
<!DOCTYPE svg PUBLIC "-//W3C//DTD SVG 20010904//EN"
 "http://www.w3.org/TR/2001/REC-SVG-20010904/DTD/svg10.dtd">
<svg version="1.0" xmlns="http://www.w3.org/2000/svg"
 width="2000.000000pt" height="404.000000pt" viewBox="0 0 2000.000000 404.000000"
 preserveAspectRatio="xMidYMid meet">

<g transform="translate(0.000000,404.000000) scale(0.100000,-0.100000)"
fill="#000000" stroke="none">
<path d="M1029 4020 c-355 -34 -625 -174 -778 -403 -97 -144 -140 -339 -120
-548 17 -184 76 -315 198 -437 141 -143 294 -219 766 -379 355 -120 470 -173
568 -264 84 -77 117 -142 124 -249 11 -161 -51 -274 -201 -364 -183 -110 -507
-144 -760 -80 -94 23 -234 97 -289 150 -26 26 -47 50 -47 53 0 4 20 23 44 43
84 70 146 195 146 293 0 102 -61 190 -168 242 -50 24 -69 27 -152 28 -119 0
-179 -24 -245 -97 -65 -73 -88 -139 -93 -278 -7 -187 36 -304 157 -432 193
-206 478 -301 901 -302 220 -1 321 10 478 49 235 60 395 146 537 289 77 77 98
106 137 186 59 120 78 207 78 353 0 184 -38 301 -140 427 -142 178 -314 272
-795 433 -170 58 -346 119 -390 137 -259 103 -364 227 -365 432 -1 174 75 304
221 378 93 48 161 61 334 67 263 9 408 -33 530 -153 l56 -56 -43 -27 c-126
-80 -186 -250 -135 -383 24 -62 98 -129 167 -151 66 -21 182 -22 243 -1 67 23
129 82 163 156 25 55 29 77 32 178 4 130 -10 207 -58 299 -104 202 -340 347
-643 396 -115 19 -344 26 -458 15z"/>
<path d="M3926 4020 c-436 -50 -762 -273 -956 -656 -115 -224 -174 -492 -187
-834 -22 -619 146 -1068 490 -1314 85 -61 253 -140 361 -171 263 -75 619 -70
880 12 174 54 363 174 535 338 101 97 207 224 195 234 -17 15 -179 138 -189
144 -6 3 -46 -28 -88 -68 -226 -215 -487 -325 -772 -325 -501 0 -781 329 -812
953 l-6 127 946 0 c532 0 948 4 951 9 3 5 9 84 12 177 12 314 -34 569 -142
787 -154 312 -423 510 -777 571 -111 20 -337 28 -441 16z m289 -325 c110 -23
202 -74 276 -153 141 -149 199 -338 199 -649 l0 -143 -652 0 -651 0 6 93 c13
199 74 422 153 564 51 92 161 201 244 241 120 59 282 77 425 47z"/>
<path d="M6737 4018 c-188 -19 -414 -92 -555 -178 -159 -98 -264 -220 -302
-350 -63 -217 -9 -397 144 -478 45 -24 62 -27 151 -27 82 0 109 4 148 22 72
34 120 75 153 135 26 48 29 62 29 143 -1 113 -28 189 -91 251 l-43 44 32 41
c66 87 207 140 372 140 314 0 497 -173 580 -549 24 -109 52 -309 57 -417 l3
-60 -80 -13 c-168 -26 -406 -75 -560 -114 -554 -141 -861 -325 -990 -592 -55
-115 -75 -206 -75 -340 0 -136 20 -231 71 -335 79 -160 221 -270 414 -323 109
-29 358 -31 485 -4 169 36 343 115 479 216 95 71 224 205 276 287 22 35 46 63
53 63 6 0 12 -1 12 -2 0 -2 5 -71 10 -154 16 -260 51 -358 146 -405 43 -21 62
-24 159 -23 131 1 278 32 490 103 l140 46 3 91 3 92 -155 3 c-170 4 -186 10
-232 77 -42 62 -46 124 -54 812 -7 595 -9 667 -28 788 -65 413 -207 684 -437
838 -220 146 -495 204 -808 172z m678 -1485 c4 -10 9 -113 12 -229 8 -297 -19
-445 -109 -602 -96 -168 -318 -324 -516 -362 -232 -46 -423 79 -471 308 -16
77 -14 238 4 307 75 288 315 426 1020 588 39 9 53 7 60 -10z"/>
<path d="M10311 4019 c-267 -47 -522 -303 -657 -660 -21 -55 -43 -99 -50 -99
-15 0 -13 -13 -74 360 -27 168 -52 315 -55 328 l-5 22 -415 0 -415 0 0 -109 0
-108 174 -42 c96 -23 191 -47 211 -52 l35 -10 -2 -1127 -3 -1127 -180 -46
c-99 -25 -192 -49 -207 -52 l-28 -7 0 -125 0 -125 790 0 790 0 0 125 c0 121
-1 125 -22 130 -13 3 -142 25 -288 51 -146 25 -269 49 -274 54 -4 4 -6 271 -3
592 4 525 7 596 25 713 44 278 127 520 233 685 123 192 254 290 346 259 29 -9
34 -14 28 -33 -4 -11 -10 -61 -12 -111 -6 -116 17 -183 86 -254 61 -63 125
-85 242 -85 73 0 94 4 142 27 148 73 220 271 172 475 -38 162 -145 278 -303
331 -71 24 -205 34 -281 20z"/>
<path d="M11060 3847 l0 -123 151 -49 151 -50 447 -578 c245 -318 447 -583
448 -590 2 -7 -199 -248 -445 -537 l-447 -525 -150 -51 -150 -51 -3 -127 -3
-126 536 0 536 0 -3 127 -3 126 -155 49 c-85 27 -156 51 -158 53 -2 2 136 192
308 421 302 403 313 417 329 398 102 -129 627 -807 629 -813 2 -5 -64 -31
-145 -58 l-148 -50 -3 -126 -3 -127 618 2 618 3 3 122 3 121 -153 52 -153 51
-468 605 -468 604 18 23 c10 12 203 243 430 512 l411 490 154 51 153 50 3 122
3 122 -541 0 -541 0 3 -122 3 -122 158 -50 c86 -27 157 -54 157 -59 0 -12
-570 -787 -579 -787 -7 0 -603 773 -609 788 -1 4 50 30 113 56 l115 49 0 123
0 124 -585 0 -585 0 0 -123z"/>
<path d="M14092 3848 l3 -122 158 -51 c133 -42 161 -54 172 -75 7 -14 258
-603 559 -1310 l546 -1286 -46 -137 c-149 -452 -270 -617 -453 -617 -81 0
-161 38 -161 76 0 7 24 37 53 66 63 64 89 129 88 221 0 84 -23 138 -77 186
-52 46 -115 66 -204 66 -98 -1 -164 -28 -231 -94 -79 -80 -103 -143 -103 -281
-1 -94 2 -111 26 -163 99 -212 386 -342 680 -308 326 37 490 200 721 721 117
264 176 421 626 1658 l446 1226 165 51 165 51 3 122 3 122 -546 0 -546 0 3
-122 3 -121 155 -52 c108 -36 154 -56 153 -66 -6 -29 -651 -2030 -657 -2036
-3 -4 -10 -2 -15 3 -9 9 -761 2027 -761 2042 0 4 84 30 188 57 l187 50 -2 30
c-1 17 -10 72 -19 123 l-16 92 -634 0 -635 0 3 -122z"/>
<path d="M17600 3450 l0 -520 180 0 c99 0 180 3 180 6 0 6 106 584 121 662
l10 52 595 0 c327 0 594 -2 594 -5 0 -2 -394 -514 -875 -1137 l-875 -1132 0
-168 0 -168 1225 0 1225 0 0 535 0 535 -178 0 -178 0 -53 -362 c-29 -200 -55
-366 -58 -370 -5 -9 -1293 -11 -1293 -2 0 3 392 514 870 1135 l870 1129 0 165
0 165 -1180 0 -1180 0 0 -520z"/>
</g>
</svg>
