<?xml version="1.0" encoding="UTF-8"?>
<svg version="1.1" xmlns="http://www.w3.org/2000/svg" width="2000" height="2000">
<path d="M0 0 C1.02428101 -0.00067474 2.04856201 -0.00134949 3.10388184 -0.00204468 C19.24199711 0.0148151 34.98390219 0.61123322 50.9375 3.25 C51.99662598 3.42160645 53.05575195 3.59321289 54.14697266 3.77001953 C89.05557062 9.58725276 122.84955772 20.38211266 154.9375 35.25 C156.42878418 35.93400879 156.42878418 35.93400879 157.95019531 36.63183594 C187.95646981 50.45388524 215.91856824 67.30744062 242.9375 86.25 C244.08847168 87.05655029 244.08847168 87.05655029 245.26269531 87.87939453 C255.59412923 95.15249666 265.51991611 102.80397262 275.24951172 110.86181641 C277.4738094 112.69105514 279.73569937 114.4706402 282 116.25 C292.82845788 124.89823146 303.11813934 134.20125419 313.23681641 143.66259766 C315.06332104 145.3674402 316.89648566 147.0649252 318.73046875 148.76171875 C337.15652865 165.83631864 337.15652865 165.83631864 345.19921875 175.22265625 C347.2296605 177.59074449 349.30013267 179.92077065 351.375 182.25 C352.05433594 183.013125 352.73367188 183.77625 353.43359375 184.5625 C353.92988281 185.119375 354.42617187 185.67625 354.9375 186.25 C353.57339841 189.24729757 352.00280728 191.51933609 349.80859375 193.96875 C348.87442627 195.01289062 348.87442627 195.01289062 347.92138672 196.078125 C344.64502308 199.66494889 341.33557852 203.21821098 338 206.75 C337.33548828 207.45769531 336.67097656 208.16539062 335.98632812 208.89453125 C329.53353595 215.74162596 323.00826153 222.39969623 315.87109375 228.53515625 C313.98255403 230.21004299 312.20594352 231.94947587 310.4375 233.75 C306.77462494 237.46204116 302.89600906 240.85791175 298.9375 244.25 C297.91768849 245.1337913 296.89818012 246.01793245 295.87890625 246.90234375 C281.06741406 259.72105607 265.83023076 271.79607873 249.9375 283.25 C249.20354004 283.78012695 248.46958008 284.31025391 247.71337891 284.85644531 C234.09433175 294.66560324 220.09915081 303.7960802 205.75 312.5 C204.97938232 312.97115234 204.20876465 313.44230469 203.41479492 313.92773438 C198.58629384 316.82635104 193.6593751 319.43456529 188.6159668 321.93261719 C187.9714431 322.2533017 187.3269194 322.57398621 186.66286469 322.90438843 C185.08838331 323.68754731 183.51303088 324.46895462 181.9375 325.25 C174.36276471 317.69850996 166.79078836 310.14426529 159.22225094 302.58656311 C155.70719938 299.07671382 152.19123056 295.56779408 148.6730957 292.06103516 C145.27330069 288.67216382 141.87600656 285.28080336 138.4803791 281.88775635 C137.18919859 280.59841308 135.89714327 279.30994521 134.60416985 278.0223999 C121.60377183 265.07437733 121.60377183 265.07437733 115.9375 258.25 C116.51757812 257.08726562 117.09765625 255.92453125 117.6953125 254.7265625 C134.93841314 219.61898822 140.67390569 182.15872043 128.37109375 144.33203125 C117.00816892 111.2525936 93.57786151 83.07283502 62.27563477 67.16308594 C42.69243716 57.64655738 22.99703648 52.83813036 1.1875 52.9375 C0.5300882 52.93998749 -0.12732361 52.94247498 -0.80465698 52.94503784 C-11.20864579 53.00574893 -21.00862394 53.45842761 -31.0625 56.25 C-31.86381348 56.47042969 -32.66512695 56.69085937 -33.49072266 56.91796875 C-65.91068736 66.15463478 -93.87003035 85.65363491 -112.0625 114.25 C-112.75730469 115.3225 -113.45210937 116.395 -114.16796875 117.5 C-132.7452177 147.97100021 -137.45302972 184.98842941 -129.54248047 219.52001953 C-120.71947361 255.08801232 -98.22896773 284.54630549 -67.03613281 303.47998047 C-55.68636954 310.21497481 -43.7566692 314.72062293 -31.0625 318.25 C-30.36785645 318.44352051 -29.67321289 318.63704102 -28.95751953 318.83642578 C1.17195937 326.72084578 36.32770701 321.44031605 63.3125 306.25 C64.28960938 305.651875 65.26671875 305.05375 66.2734375 304.4375 C69.52321226 302.98892005 70.586156 303.17169768 73.9375 304.25 C76.32307434 306.14109802 76.32307434 306.14109802 78.81958008 308.64624023 C79.27872803 309.10159149 79.73787598 309.55694275 80.2109375 310.02609253 C81.71957227 311.52734294 83.21336508 313.0424612 84.70703125 314.55859375 C85.75290646 315.60685395 86.79952292 316.65437505 87.84684753 317.70118713 C90.03591592 319.89337951 92.21811248 322.09211552 94.39526367 324.29614258 C97.19068836 327.12563045 99.99918374 329.94168864 102.81244373 332.75343227 C104.97225521 334.91378652 107.12682318 337.0793053 109.27963829 339.24662971 C110.31390472 340.28727278 111.34939781 341.32669814 112.38611794 342.36489677 C113.82993199 343.81302971 115.26635768 345.26851779 116.70239258 346.72436523 C117.93219597 347.96560402 117.93219597 347.96560402 119.18684387 349.23191833 C120.9375 351.25 120.9375 351.25 120.9375 353.25 C92.7865225 362.86228877 64.55013464 369.8149539 34.9375 373.25 C34.1232959 373.353125 33.3090918 373.45625 32.47021484 373.5625 C22.34671308 374.68845054 12.10973999 374.49400246 1.9375 374.5 C0.91072144 374.50067474 -0.11605713 374.50134949 -1.1739502 374.50204468 C-17.3307499 374.48519828 -33.09044096 373.89182032 -49.0625 371.25 C-50.12162598 371.07839355 -51.18075195 370.90678711 -52.27197266 370.72998047 C-87.17934304 364.91295181 -120.9767373 354.120475 -153.0625 339.25 C-154.06732422 338.78867676 -155.07214844 338.32735352 -156.10742188 337.85205078 C-171.54112575 330.73529133 -186.42073893 322.87456147 -201.0625 314.25 C-202.24634277 313.55656494 -202.24634277 313.55656494 -203.45410156 312.84912109 C-228.24959673 298.25632753 -251.64506136 281.25438724 -274.0625 263.25 C-274.97902344 262.51652344 -275.89554688 261.78304688 -276.83984375 261.02734375 C-288.73262116 251.40484691 -300.18964984 241.28379809 -311.36181641 230.83740234 C-313.18832104 229.1325598 -315.02148566 227.4350748 -316.85546875 225.73828125 C-335.28152865 208.66368136 -335.28152865 208.66368136 -343.32421875 199.27734375 C-345.3546605 196.90925551 -347.42513267 194.57922935 -349.5 192.25 C-350.51900391 191.1053125 -350.51900391 191.1053125 -351.55859375 189.9375 C-352.05488281 189.380625 -352.55117188 188.82375 -353.0625 188.25 C-351.69195167 185.23354203 -350.10332822 182.95529615 -347.89453125 180.4921875 C-347.27143066 179.79577148 -346.64833008 179.09935547 -346.00634766 178.38183594 C-342.94433861 175.02370193 -339.86328519 171.68568331 -336.75 168.375 C-336.09700928 167.68027588 -335.44401855 166.98555176 -334.77124023 166.26977539 C-327.92229063 159.0074762 -321.04264125 151.84158827 -313.4453125 145.3515625 C-310.81460252 143.03136255 -308.26617941 140.63577732 -305.71508789 138.22875977 C-299.90354369 132.74645698 -294.04333969 127.44290449 -287.796875 122.453125 C-285.26991689 120.41711875 -282.79763957 118.33293543 -280.33374023 116.22192383 C-209.9401019 55.95461342 -121.52420905 9.94066018 0 0 Z " fill="#4E36EA" transform="translate(999.0625,812.75)"/>
<path d="M0 0 C16.83470089 12.8302024 26.42194662 29.56631985 30.73046875 49.9765625 C33.40445557 71.28823742 29.29700735 91.32023201 17.0703125 109.06640625 C15.17352125 111.5046117 13.20247435 113.80841225 11.12109375 116.08984375 C10.60417969 116.69828125 10.08726562 117.30671875 9.5546875 117.93359375 C-3.11753408 131.90797344 -23.36779636 140.00095493 -41.87890625 141.08984375 C-42.55953125 141.13109375 -43.24015625 141.17234375 -43.94140625 141.21484375 C-64.72213987 141.8260418 -84.62748041 134.11707488 -99.87890625 120.08984375 C-114.94160905 105.43015641 -123.56822769 86.62296206 -124.16210938 65.61889648 C-124.44861002 42.72033235 -116.30127628 23.33660745 -100.64453125 6.6953125 C-92.90316124 -0.59775784 -83.87031943 -6.23763681 -73.87890625 -9.91015625 C-72.8425 -10.30203125 -71.80609375 -10.69390625 -70.73828125 -11.09765625 C-46.56452507 -18.90263582 -20.82634803 -13.81829604 0 0 Z " fill="#4E36EA" transform="translate(1953.87890625,949.91015625)"/>
<path d="M0 0 C14.86397888 13.06430431 26.19728084 31.48221153 28 51.5625 C29.47673248 76.01194984 22.69572472 95.9495245 7.2578125 114.67578125 C-3.37555834 126.18204074 -20.42356772 135.49778773 -36 137.5625 C-36.73347656 137.67078125 -37.46695313 137.7790625 -38.22265625 137.890625 C-58.7910261 140.57192193 -78.85413822 135.59894942 -95.796875 123.578125 C-98.27105426 121.64376667 -100.6479519 119.64299726 -103 117.5625 C-103.61230469 117.04429687 -104.22460938 116.52609375 -104.85546875 115.9921875 C-117.46120066 104.51145226 -125.85622783 85.84798098 -127.20336914 69.02246094 C-128.08400798 46.07729461 -123.09836553 26.1684612 -108 8.5625 C-107.38640625 7.83675781 -106.7728125 7.11101563 -106.140625 6.36328125 C-78.9492793 -23.21021226 -30.72096862 -24.2712625 0 0 Z " fill="#4E36EA" transform="translate(141,952.4375)"/>
<path d="M0 0 C1.41549104 1.18524481 2.81150687 2.39412103 4.1875 3.625 C4.92355469 4.26824219 5.65960937 4.91148437 6.41796875 5.57421875 C20.7208656 18.8924067 28.13459524 36.58700421 29.40625 55.95703125 C30.00619021 78.22981138 22.09339148 97.41997621 6.9375 113.4375 C-2.21593645 122.19573237 -12.79987907 127.79151503 -24.8125 131.625 C-25.96878906 131.99431641 -25.96878906 131.99431641 -27.1484375 132.37109375 C-46.8579833 137.38492558 -67.66168228 132.79083557 -84.8125 122.625 C-88.02900607 120.49541723 -90.93887581 118.19556778 -93.8125 115.625 C-94.54855469 114.98175781 -95.28460937 114.33851563 -96.04296875 113.67578125 C-110.40728022 100.30040688 -117.84547762 82.49452791 -119.03125 63.03515625 C-119.58080937 40.84669655 -111.6845192 21.79422583 -96.5625 5.8125 C-87.40906355 -2.94573237 -76.82512093 -8.54151503 -64.8125 -12.375 C-64.04164063 -12.62121094 -63.27078125 -12.86742187 -62.4765625 -13.12109375 C-41.1342263 -18.55028454 -17.44419403 -13.00769485 0 0 Z " fill="#4E36EA" transform="translate(1044.8125,940.375)"/>
<path d="M0 0 C0.67031719 1.9570868 1.33614683 3.91571113 2 5.875 C2.37125 6.96554687 2.7425 8.05609375 3.125 9.1796875 C4 12 4 12 4 14 C2.06665039 14.73461914 2.06665039 14.73461914 -0.65234375 15.53515625 C-10.25741415 19.10976831 -18.02561068 23.46978419 -22.59570312 32.8671875 C-27.85328414 45.05328621 -31.39048562 57.95666167 -35.09814453 70.67724609 C-36.85676929 76.63781825 -38.84806279 82.49011422 -40.96484375 88.33203125 C-41.43506203 89.63059807 -41.43506203 89.63059807 -41.91477966 90.95539856 C-42.81490935 93.42980992 -43.7195053 95.90254771 -44.625 98.375 C-45.71410279 101.35730807 -46.7888711 104.34412701 -47.8515625 107.3359375 C-48.29322754 108.55845215 -48.73489258 109.7809668 -49.18994141 111.04052734 C-50.30085878 114.02320102 -50.30085878 114.02320102 -49 117 C-46.68158666 118.8797946 -44.35927243 120.63803957 -41.9375 122.375 C-36.10271582 126.64871485 -30.39966297 131.03206447 -24.8125 135.625 C-19.5342147 139.95504822 -14.2083332 144.1994997 -8.78125 148.34130859 C-4.93246551 151.2787255 -1.11497516 154.25289515 2.6875 157.25 C8.31859053 161.68569046 13.96714461 166.09849705 19.625 170.5 C20.39545654 171.09973633 21.16591309 171.69947266 21.9597168 172.31738281 C22.68715088 172.88295898 23.41458496 173.44853516 24.1640625 174.03125 C25.13013428 174.78245117 25.13013428 174.78245117 26.11572266 175.54882812 C26.73753418 176.02771484 27.3593457 176.50660156 28 177 C28.68545898 177.55324951 29.37091797 178.10649902 30.07714844 178.67651367 C32.76726776 180.52810545 34.41033223 180.16553199 37.625 179.8125 C38.75550781 179.69648437 39.88601563 179.58046875 41.05078125 179.4609375 C42.35402344 179.30882812 43.65726563 179.15671875 45 179 C46.61834995 178.82423042 48.23684753 178.64981621 49.85546875 178.4765625 C54.2392123 178.0029117 58.61991747 177.50633951 63 177 C63.69848264 178.93356782 64.38344814 180.87202298 65.0625 182.8125 C65.44535156 183.89144531 65.82820313 184.97039062 66.22265625 186.08203125 C67 189 67 189 66 192 C63.27789701 193.15411345 60.64847661 194.10666888 57.84008789 195.00268555 C56.98484024 195.28597717 56.12959259 195.5692688 55.24842834 195.86114502 C52.41018499 196.79797937 49.56663456 197.71745559 46.72265625 198.63671875 C44.75557843 199.28165351 42.78882073 199.92756542 40.82237244 200.57441711 C36.69617459 201.92904012 32.56753438 203.27583021 28.43676758 204.61645508 C23.13236683 206.33802759 17.83231039 208.07251017 12.53377628 209.8120451 C7.49395177 211.46616777 2.45219322 213.11435456 -2.58984375 214.76171875 C-3.55741041 215.07828619 -4.52497707 215.39485363 -5.52186394 215.72101402 C-8.25042636 216.61243502 -10.98030618 217.49968437 -13.71069336 218.38549805 C-14.52479675 218.65195633 -15.33890015 218.91841461 -16.17767334 219.19294739 C-21.7701667 221 -21.7701667 221 -24 221 C-24.70088156 219.25531628 -25.38524009 217.50398839 -26.0625 215.75 C-26.44535156 214.77546875 -26.82820313 213.8009375 -27.22265625 212.796875 C-28.05482872 209.80272683 -28.17077567 208.81532296 -27 206 C-24.99047852 204.44433594 -24.99047852 204.44433594 -22.37890625 202.984375 C-21.44369141 202.45585938 -20.50847656 201.92734375 -19.54492188 201.3828125 C-18.56072266 200.84398437 -17.57652344 200.30515625 -16.5625 199.75 C-15.58216797 199.19570312 -14.60183594 198.64140625 -13.59179688 198.0703125 C-6.3083436 194 -6.3083436 194 -4 194 C-7.8667922 190.03028938 -11.92658196 186.36503633 -16.125 182.75 C-16.78806152 182.17717285 -17.45112305 181.6043457 -18.13427734 181.01416016 C-22.78125788 177.01355991 -27.49309625 173.10203182 -32.2578125 169.2421875 C-35.37000505 166.69746026 -38.43715239 164.10368977 -41.5 161.5 C-51.44355033 152.84632317 -51.44355033 152.84632317 -62 145 C-65.01067388 152.59694796 -67.31555156 160.39998591 -69.66796875 168.21875 C-70.11185447 169.68712241 -70.55597552 171.1554237 -71.00032043 172.62365723 C-72.16163495 176.46320321 -73.31977732 180.30369871 -74.47723389 184.14440918 C-75.66192327 188.07342027 -76.84964863 192.00151329 -78.03710938 195.9296875 C-80.36102444 203.61890261 -82.68158499 211.30912476 -85 219 C-82.93718406 218.84543773 -80.87445699 218.68968899 -78.81176758 218.53344727 C-77.08873161 218.40354149 -77.08873161 218.40354149 -75.33088684 218.27101135 C-71.10222752 217.92695443 -66.89729799 217.45937578 -62.6875 216.9375 C-61.55924805 216.80118164 -61.55924805 216.80118164 -60.40820312 216.66210938 C-58.60516432 216.44390723 -56.8025322 216.22234828 -55 216 C-54.30151736 217.93356782 -53.61655186 219.87202298 -52.9375 221.8125 C-52.55464844 222.89144531 -52.17179687 223.97039062 -51.77734375 225.08203125 C-51 228 -51 228 -52 231 C-54.74407959 232.22720337 -54.74407959 232.22720337 -58.45996094 233.43603516 C-59.47225769 233.77078102 -59.47225769 233.77078102 -60.50500488 234.11228943 C-62.74449532 234.84954208 -64.98917937 235.56938977 -67.234375 236.2890625 C-68.79070159 236.79707576 -70.34670781 237.30607144 -71.90240479 237.81600952 C-75.16862314 238.88397242 -78.43724167 239.94409559 -81.70800781 240.99804688 C-85.89555293 242.34745041 -90.07880189 243.70958802 -94.26055527 245.07682228 C-98.25047886 246.38088958 -102.24227697 247.67916965 -106.234375 248.9765625 C-106.99463737 249.22402851 -107.75489975 249.47149452 -108.53820038 249.7264595 C-110.6986193 250.42836821 -112.86029957 251.12623381 -115.02246094 251.82275391 C-116.86659576 252.41873886 -116.86659576 252.41873886 -118.74798584 253.02676392 C-121.49698049 253.84946045 -124.17714844 254.50225485 -127 255 C-127.70365602 253.4447088 -128.38729378 251.88035173 -129.0625 250.3125 C-129.44535156 249.44238281 -129.82820313 248.57226562 -130.22265625 247.67578125 C-131.12365988 244.57433659 -131.01143435 243.04834652 -130 240 C-128.19677734 238.98486328 -128.19677734 238.98486328 -125.8359375 238.3203125 C-118.47859256 235.55968526 -111.73319117 231.97468652 -107.83831787 224.88562012 C-102.7679795 213.72252828 -99.84109393 201.56734422 -96.67573547 189.76014709 C-94.62503522 182.11647757 -92.34268914 174.57742173 -89.8984375 167.05078125 C-89.56382004 166.01480804 -89.22920258 164.97883484 -88.88444519 163.91146851 C-87.58451218 159.89008957 -86.28226679 155.86949286 -84.97171021 151.8515625 C-84.07972338 149.09947564 -83.2073619 146.34191221 -82.33984375 143.58203125 C-82.07098358 142.76753006 -81.80212341 141.95302887 -81.52511597 141.11384583 C-80.17719703 136.90223162 -80.17719703 136.90223162 -80.68530273 132.60986328 C-82.81669746 129.99994372 -85.44503926 128.06807237 -88.125 126.0625 C-89.39949206 125.08601026 -90.67288704 124.10808737 -91.9453125 123.12890625 C-92.61079102 122.61859863 -93.27626953 122.10829102 -93.96191406 121.58251953 C-97.35587785 118.9471969 -100.67536543 116.22188285 -104 113.5 C-110.7006511 108.03236535 -117.47087928 102.6615374 -124.28662109 97.33837891 C-126.59120524 95.53818935 -128.89430559 93.73617956 -131.19165039 91.92675781 C-132.35642375 91.01656994 -133.52888115 90.11613154 -134.70874023 89.22558594 C-137.82918076 86.84524715 -140.60399613 84.42444545 -143.265625 81.53515625 C-147.75345604 76.92179603 -151.55586779 73.24021574 -158.234375 72.77441406 C-165.35713999 73.05240407 -172.32147333 74.14348989 -179.30541992 75.53417969 C-182 76 -182 76 -186 76 C-186.67031719 74.0429132 -187.33614683 72.08428887 -188 70.125 C-188.37125 69.03445313 -188.7425 67.94390625 -189.125 66.8203125 C-190 64 -190 64 -190 62 C-168.44901085 54.56532709 -146.86719209 47.23923466 -125.1875 40.1875 C-123.77940567 39.72884552 -123.77940567 39.72884552 -122.34286499 39.26092529 C-119.68103393 38.39463628 -117.01845711 37.53069294 -114.35546875 36.66796875 C-113.5655957 36.41130936 -112.77572266 36.15464996 -111.96191406 35.89021301 C-108.65979484 34.8243936 -105.37257795 33.81463137 -102 33 C-101.32532438 34.74692795 -100.66055844 36.49768525 -100 38.25 C-99.62875 39.22453125 -99.2575 40.1990625 -98.875 41.203125 C-98 44 -98 44 -98 48 C-99.8359375 49.52392578 -99.8359375 49.52392578 -102.375 50.9453125 C-103.72851562 51.72455078 -103.72851562 51.72455078 -105.109375 52.51953125 C-106.06328125 53.04933594 -107.0171875 53.57914063 -108 54.125 C-109.87865354 55.18364666 -111.75387084 56.24842279 -113.625 57.3203125 C-114.46289062 57.78711426 -115.30078125 58.25391602 -116.1640625 58.73486328 C-116.76992187 59.1523584 -117.37578125 59.56985352 -118 60 C-118 60.66 -118 61.32 -118 62 C-116.10053158 63.76659623 -114.1911443 65.42119907 -112.1875 67.0625 C-111.59291992 67.55709717 -110.99833984 68.05169434 -110.38574219 68.5612793 C-108.59571187 70.04731062 -106.79902175 71.52487358 -105 73 C-104.10410156 73.73734375 -103.20820312 74.4746875 -102.28515625 75.234375 C-100.55466646 76.65289667 -98.82147035 78.06812164 -97.0859375 79.48046875 C-94.66792781 81.45466654 -92.25741646 83.43684776 -89.8515625 85.42578125 C-89.11325195 86.03574951 -88.37494141 86.64571777 -87.61425781 87.27416992 C-86.16749127 88.46997641 -84.72147419 89.66669048 -83.27636719 90.86450195 C-78.25895997 95.00831096 -73.15538036 99.0293498 -68 103 C-56.28326014 69.57398737 -56.28326014 69.57398737 -45 36 C-57.375 36.99 -57.375 36.99 -70 38 C-74 27 -74 27 -73 23 C-70.24246216 21.64581299 -70.24246216 21.64581299 -66.50830078 20.43457031 C-65.83022369 20.20965408 -65.15214661 19.98473785 -64.45352173 19.75300598 C-62.2056969 19.01196291 -59.95097438 18.29492341 -57.6953125 17.578125 C-56.13408118 17.06949465 -54.57328465 16.55952796 -53.01290894 16.04827881 C-49.73914081 14.97932549 -46.46214058 13.92121866 -43.18212891 12.87158203 C-38.97505299 11.52518352 -34.77413105 10.16074304 -30.57518196 8.78923416 C-26.57553633 7.48358675 -22.57308263 6.18665565 -18.5703125 4.890625 C-17.80472141 4.64200966 -17.03913033 4.39339432 -16.25033951 4.13724518 C-14.0852302 3.43597951 -11.91824024 2.74089864 -9.75048828 2.04785156 C-8.51662384 1.65132385 -7.2827594 1.25479614 -6.01150513 0.84625244 C-3 0 -3 0 0 0 Z " fill="#4E36EA" transform="translate(1339,1724)"/>
<path d="M0 0 C5.23170763 0.60135611 10.01802709 1.81064235 15.01489258 3.484375 C15.78323425 3.73650757 16.55157593 3.98864014 17.34320068 4.24841309 C19.86221303 5.07662635 22.37836743 5.91317669 24.89453125 6.75 C26.6507798 7.32957162 28.4071859 7.90866605 30.16374207 8.48730469 C33.8338991 9.69761739 37.50277226 10.91171678 41.1706543 12.12890625 C45.87790504 13.69098105 50.5872635 15.24657541 55.2974596 16.79974365 C59.78885747 18.28102356 64.27925169 19.76533422 68.76953125 21.25 C69.62835215 21.5337146 70.48717304 21.8174292 71.37201881 22.10974121 C73.79259571 22.91003507 76.21245388 23.71246206 78.63208008 24.515625 C79.35260056 24.75357788 80.07312103 24.99153076 80.81547546 25.23669434 C85.77023801 26.88511901 85.77023801 26.88511901 88 28 C87.71390693 29.39698636 87.42083095 30.7925433 87.125 32.1875 C86.88136719 33.35345703 86.88136719 33.35345703 86.6328125 34.54296875 C85.9638008 37.1405512 85.04347512 39.53161138 84 42 C81.72905229 41.85595878 79.45824793 41.70965714 77.1875 41.5625 C75.92292969 41.48128906 74.65835937 41.40007813 73.35546875 41.31640625 C69.97479367 41.0844525 66.60217636 40.79019665 63.2277832 40.48022461 C62.246147 40.39026718 61.2645108 40.30030975 60.25312805 40.20762634 C59.13782967 40.1048513 59.13782967 40.1048513 58 40 C58.18792114 40.7553302 58.37584229 41.5106604 58.56945801 42.28887939 C60.34004548 49.40910354 62.10616138 56.53041477 63.86727142 63.65298843 C64.77282076 67.31468594 65.68008997 70.97593928 66.59130859 74.63623047 C67.47070134 78.16895059 68.34555139 81.70276732 69.2172699 85.23738861 C69.55055876 86.5853755 69.8854795 87.93296 70.22206116 89.28012848 C70.69338113 91.16777411 71.15835297 93.05700134 71.62304688 94.94628906 C72.02275696 96.55845306 72.02275696 96.55845306 72.43054199 98.20318604 C73 101 73 101 73 105 C79.02764612 101.90432002 84.44673077 98.3169007 89.8828125 94.28125 C93.35463519 91.74046748 96.88534241 89.30139958 100.4375 86.875 C106.912565 82.44060952 113.3719367 77.98438535 119.8125 73.5 C120.67866943 72.9004248 121.54483887 72.30084961 122.43725586 71.68310547 C123.24815674 71.11736816 124.05905762 70.55163086 124.89453125 69.96875 C125.61487549 69.46794922 126.33521973 68.96714844 127.07739258 68.45117188 C129.28050431 66.85788627 129.28050431 66.85788627 132 64 C125.4 60.04 118.8 56.08 112 52 C112.84895224 46.05733434 113.60038859 43.11221561 116 38 C124.15335357 39.60927318 131.96027989 42.13191101 139.84375 44.71875 C141.26333646 45.18208048 142.68297439 45.64525326 144.10266113 46.10827637 C147.05868322 47.07359986 150.01357089 48.0423068 152.96777344 49.01318359 C156.75936962 50.25871874 160.55443381 51.49330718 164.35048676 52.72518158 C167.2740218 53.67565522 170.19527981 54.63297547 173.11592102 55.59230042 C174.51542496 56.05081971 175.91572557 56.50691459 177.31681824 56.96055603 C179.26497873 57.59220034 181.20973593 58.2343128 183.15429688 58.87695312 C184.26188354 59.23954224 185.36947021 59.60213135 186.51062012 59.97570801 C189 61 189 61 190 63 C189.43100339 65.06439975 188.77181998 67.10451277 188.0625 69.125 C187.68222656 70.22070312 187.30195312 71.31640625 186.91015625 72.4453125 C186.60980469 73.28835937 186.30945312 74.13140625 186 75 C181.07892006 75.16134688 176.61079789 75.20080024 171.80859375 74.0625 C164.34947161 72.46491071 158.546769 71.68563526 151.74609375 75.703125 C147.47982089 78.58192759 143.4891967 81.76531663 139.51196289 85.02709961 C134.88745584 88.65919617 129.91483866 91.77916909 125 95 C120.96965984 97.71519039 116.95422436 100.45221621 112.9375 103.1875 C111.95845703 103.85330078 110.97941406 104.51910156 109.97070312 105.20507812 C100.30111848 111.78482732 90.65086914 118.39284516 81 125 C81.65155914 127.39511465 82.30328612 129.79018335 82.95527649 132.18518066 C83.54556812 134.35474885 84.13513193 136.52451516 84.7240448 138.69445801 C86.38833559 144.82007531 88.068387 150.94071755 89.77587891 157.05444336 C93.15120279 169.19160396 96.36317915 181.3034234 99.01171875 193.625 C102.97695738 216.70394055 102.97695738 216.70394055 117.04696655 234.03773499 C121.70002299 236.75080508 126.62768657 238.65607651 131.79785156 240.12011719 C132.52456055 240.41047852 133.25126953 240.70083984 134 241 C135.28497537 244.85492611 134.4052209 246.40346836 133.0625 250.1875 C132.68222656 251.27417969 132.30195312 252.36085937 131.91015625 253.48046875 C131.60980469 254.31191406 131.30945312 255.14335937 131 256 C123.48540364 254.03309567 116.11168329 251.79127096 108.75390625 249.3046875 C107.71176468 248.95561844 106.66962311 248.60654938 105.59590149 248.24690247 C102.250422 247.12592536 98.90634672 246.00083748 95.5625 244.875 C90.9838287 243.33497975 86.40449567 241.79695729 81.82421875 240.26171875 C80.70859558 239.88777481 79.59297241 239.51383087 78.44354248 239.1285553 C72.13519997 237.02219923 65.81452553 234.97242426 59.45703125 233.01953125 C58.78211136 232.81070313 58.10719147 232.601875 57.41181946 232.38671875 C54.43205822 231.46621187 51.44905657 230.56312586 48.45532227 229.68896484 C47.45686279 229.38297363 46.45840332 229.07698242 45.4296875 228.76171875 C44.58647949 228.51381592 43.74327148 228.26591309 42.87451172 228.01049805 C41 227 41 227 40.19702148 225.04882812 C39.94083363 222.38472841 40.44088133 220.37829106 41.1875 217.8125 C41.42855469 216.93207031 41.66960937 216.05164063 41.91796875 215.14453125 C43 213 43 213 44.70141602 212.33105469 C47.55340965 211.9202949 50.00038116 212.19392617 52.859375 212.55859375 C53.97441406 212.69716797 55.08945313 212.83574219 56.23828125 212.97851562 C57.39714844 213.12998047 58.55601563 213.28144531 59.75 213.4375 C60.92433594 213.58509766 62.09867188 213.73269531 63.30859375 213.88476562 C66.20662568 214.24996477 69.1036212 214.62194968 72 215 C71.68053406 213.69787567 71.68053406 213.69787567 71.35461426 212.3694458 C69.34862596 204.18963183 67.34704964 196.00875372 65.35042572 187.82664871 C64.32377971 183.62015984 63.29543062 179.41410262 62.26318359 175.20898438 C61.26713224 171.15104759 60.27556231 167.09203982 59.28709412 163.03224945 C58.90912886 161.48331441 58.52954864 159.93477253 58.14833069 158.38663483 C57.61479268 156.2187352 57.08700609 154.04951064 56.56054688 151.87988281 C56.2585437 150.64522278 55.95654053 149.41056274 55.64538574 148.13848877 C55 145 55 145 55 141 C38.32164498 152.80816652 21.93478899 164.98680487 5.70703125 177.40625 C4.9176416 178.00824219 4.12825195 178.61023438 3.31494141 179.23046875 C1.76578801 180.41463494 0.22120356 181.60480128 -1.31884766 182.80078125 C-2.03476074 183.35121094 -2.75067383 183.90164062 -3.48828125 184.46875 C-4.11903564 184.95794922 -4.74979004 185.44714844 -5.3996582 185.95117188 C-7 187 -7 187 -9 187 C-6.60786579 189.67301006 -4.09207755 191.18036355 -0.9296875 192.84765625 C0.04871094 193.37037109 1.02710938 193.89308594 2.03515625 194.43164062 C4.10277489 195.52295641 6.17048391 196.61410098 8.23828125 197.70507812 C9.21410156 198.22650391 10.18992187 198.74792969 11.1953125 199.28515625 C12.09266113 199.75832275 12.99000977 200.23148926 13.91455078 200.71899414 C16 202 16 202 17 204 C16.29296875 206.78515625 16.29296875 206.78515625 15.1875 210.0625 C14.65189453 211.68865234 14.65189453 211.68865234 14.10546875 213.34765625 C13 216 13 216 11 217 C9.25299072 216.61808777 9.25299072 216.61808777 7.11816406 215.89526367 C6.31323013 215.62682648 5.5082962 215.35838928 4.67897034 215.08181763 C3.80006638 214.7802475 2.92116241 214.47867737 2.015625 214.16796875 C0.64161781 213.70642899 0.64161781 213.70642899 -0.76014709 213.23556519 C-3.7591457 212.22645512 -6.75452068 211.20700421 -9.75 210.1875 C-11.7975199 209.49657231 -13.84529105 208.80638874 -15.89331055 208.11694336 C-19.99496578 206.73531202 -24.09538196 205.35009727 -28.19482422 203.96191406 C-35.41445868 201.51901212 -42.64504757 199.10942268 -49.87780762 196.70571899 C-52.92567485 195.69240747 -55.97256563 194.67617554 -59.01953125 193.66015625 C-60.66308594 193.11230469 -62.30664062 192.56445312 -64 192 C-62.68 187.38 -61.36 182.76 -60 178 C-58.17597656 178.29519531 -56.35195312 178.59039062 -54.47265625 178.89453125 C-38.94354439 181.40559405 -38.94354439 181.40559405 -24.81469727 176.10058594 C-22.09815056 173.75934071 -19.49090392 171.3343717 -16.93896484 168.81494141 C-13.7680864 165.84688419 -10.21479508 163.49101204 -6.625 161.0625 C-5.20749953 160.0759786 -3.79215241 159.08635635 -2.37890625 158.09375 C-1.66492676 157.59230469 -0.95094727 157.09085938 -0.21533203 156.57421875 C3.70615463 153.78760358 7.57102435 150.92471674 11.4375 148.0625 C22.87689085 139.59505022 34.41370722 131.26509105 46 123 C45.40876761 117.4909311 44.44753137 112.31118164 43.00634766 106.96679688 C42.70611946 105.82852196 42.70611946 105.82852196 42.39982605 104.66725159 C41.74309644 102.18300759 41.078815 99.70085812 40.4140625 97.21875 C39.95151149 95.47824025 39.48930815 93.73763807 39.0274353 91.99694824 C38.06069808 88.35823007 37.09030406 84.72051326 36.1171875 81.08349609 C34.87461789 76.43852905 33.64036924 71.79140068 32.40876198 67.14351654 C31.45609771 63.55148289 30.49942233 59.96052706 29.54151535 56.36988831 C29.08510947 54.65749631 28.62983253 52.94480298 28.17573929 51.23179626 C27.53863465 48.83117748 26.89622973 46.4320369 26.25244141 44.03320312 C26.06843277 43.33582535 25.88442413 42.63844757 25.69483948 41.91993713 C23.61237761 33.0527865 23.61237761 33.0527865 18.57983398 25.91430664 C17.64469971 25.41793701 16.70956543 24.92156738 15.74609375 24.41015625 C14.72708984 23.85392578 13.70808594 23.29769531 12.65820312 22.72460938 C11.06395508 21.90186523 11.06395508 21.90186523 9.4375 21.0625 C7.83745117 20.19915039 7.83745117 20.19915039 6.20507812 19.31835938 C2.82529917 17.5011128 -0.56773557 15.71613222 -4 14 C-3.00956295 9.16371695 -2.04301154 4.52381127 0 0 Z " fill="#4E36EA" transform="translate(1228,0)"/>
<path d="M0 0 C7.7461446 1.49365485 15.72950592 3.39225835 20.5 10.125 C21.69004379 12.06921612 22.85290245 14.03014017 24 16 C24.86009856 17.37083539 25.72650526 18.73772411 26.59765625 20.1015625 C28.64545756 23.30785202 30.6788222 26.5224595 32.69921875 29.74609375 C36.06824892 35.11620907 39.46859961 40.46603366 42.875 45.8125 C43.45967041 46.73063477 44.04434082 47.64876953 44.64672852 48.59472656 C45.83696707 50.46377432 47.02731568 52.33275201 48.21777344 54.20166016 C51.14654813 58.80023762 54.07317691 63.40018027 57 68 C58.16665613 69.83334004 59.3333228 71.66667337 60.5 73.5 C95.5 128.5 95.5 128.5 97.25195312 131.25317383 C98.41198286 133.07600826 99.57213794 134.89876291 100.73242188 136.72143555 C103.75169662 141.46473655 106.76840866 146.20964086 109.78125 150.95703125 C110.40386719 151.93736328 111.02648438 152.91769531 111.66796875 153.92773438 C112.84847429 155.78659011 114.02822069 157.64592829 115.20703125 159.50585938 C118.73187762 165.05391709 122.32990234 170.54692922 126 176 C128.82721503 170.49887611 131.32750821 164.96975651 133.6171875 159.2265625 C133.95135178 158.39684433 134.28551605 157.56712616 134.62980652 156.71226501 C135.71452555 154.01770046 136.79481713 151.32138579 137.875 148.625 C139.3900519 144.85471283 140.90750389 141.08539557 142.42578125 137.31640625 C142.80703659 136.36936325 143.18829193 135.42232025 143.58110046 134.44657898 C146.09647189 128.20898433 148.64805908 121.98746454 151.23046875 115.77734375 C151.72259857 114.59217163 151.72259857 114.59217163 152.22467041 113.38305664 C153.47488061 110.37385998 154.72561105 107.36494381 155.98699951 104.3604126 C156.84079459 102.32671814 157.68847034 100.29056828 158.53515625 98.25390625 C159.013479 97.11252197 159.49180176 95.9711377 159.98461914 94.79516602 C161.17071662 92.02569335 161.17071662 92.02569335 161 89 C159.46150298 87.61900759 159.46150298 87.61900759 157.37109375 86.43359375 C156.58992188 85.9526123 155.80875 85.47163086 155.00390625 84.97607422 C153.73353516 84.21447998 153.73353516 84.21447998 152.4375 83.4375 C150.69561408 82.36751247 148.95474169 81.29587338 147.21484375 80.22265625 C146.33940918 79.68527832 145.46397461 79.14790039 144.56201172 78.59423828 C140.82127314 76.26652502 137.15529999 73.83403667 133.5 71.375 C132.88439209 70.9617749 132.26878418 70.5485498 131.63452148 70.12280273 C130.08857621 69.08350996 128.54418344 68.04190872 127 67 C126.01 66.34 125.02 65.68 124 65 C124.60875755 60.39583374 125.84722956 56.43516676 127.5625 52.125 C128.01753906 50.97257812 128.47257812 49.82015625 128.94140625 48.6328125 C129.46541016 47.32957031 129.46541016 47.32957031 130 46 C134.97515827 46.60278561 139.25890957 48.16820106 143.828125 50.1328125 C144.57600281 50.44773651 145.32388062 50.76266052 146.09442139 51.08712769 C148.48223204 52.09368811 150.8662789 53.10879734 153.25 54.125 C156.35789683 55.44361956 159.46774475 56.75756368 162.578125 58.0703125 C163.34539917 58.39622375 164.11267334 58.72213501 164.90319824 59.05792236 C168.95813558 60.76874798 173.02801952 62.40629104 177.15039062 63.94824219 C177.98173523 64.26074921 178.81307983 64.57325623 179.6696167 64.89523315 C181.2645007 65.48974868 182.86309122 66.07443805 184.46563721 66.64797974 C186.34383476 67.34818101 188.17781336 68.16480916 190 69 C191.15766928 72.47300785 190.86496639 73.00113085 189.515625 76.25146484 C189.16294556 77.11432098 188.81026611 77.97717712 188.44689941 78.86618042 C188.05192261 79.80495026 187.6569458 80.74372009 187.25 81.7109375 C186.64351624 83.18423019 186.64351624 83.18423019 186.02478027 84.68728638 C184.69181586 87.92016526 183.34581761 91.14745324 182 94.375 C181.06993672 96.62522691 180.14090841 98.87588186 179.21289062 101.12695312 C177.34609264 105.65353602 175.47531008 110.17843815 173.6015625 114.70214844 C170.48455508 122.23633114 167.41895895 129.79079041 164.36737061 137.35165405 C162.89648336 140.99481953 161.42110698 144.63616386 159.9453125 148.27734375 C159.6423526 149.0248439 159.3393927 149.77234406 159.0272522 150.54249573 C154.49327565 161.72265667 149.93335166 172.89226132 145.375 184.0625 C144.94276123 185.12210938 144.51052246 186.18171875 144.06518555 187.2734375 C142.05975086 192.18914675 140.05212795 197.10392381 138.03808594 202.01611328 C136.80460706 205.02517458 135.5815141 208.03774832 134.37597656 211.05810547 C133.93479492 212.1513916 133.49361328 213.24467773 133.0390625 214.37109375 C132.50466553 215.71385376 132.50466553 215.71385376 131.95947266 217.08374023 C131 219 131 219 129 220 C126.51225443 219.33519737 124.21488994 218.58578493 121.8125 217.6875 C121.16474609 217.48060547 120.51699219 217.27371094 119.84960938 217.06054688 C113.3184948 214.60077645 110.54968242 209.76235321 107 204 C106.44046631 203.12287354 105.88093262 202.24574707 105.30444336 201.34204102 C103.5350712 198.55371702 101.79652781 195.74792622 100.0625 192.9375 C94.74712952 184.37766527 89.37865403 175.85545836 83.9375 167.375 C83.27065186 166.33553223 82.60380371 165.29606445 81.91674805 164.22509766 C80.58796883 162.15408394 79.25911247 160.08311971 77.93017578 158.01220703 C74.90141542 153.2855633 71.88731047 148.5496387 68.875 143.8125 C68.01805542 142.46514771 68.01805542 142.46514771 67.14379883 141.09057617 C64.85910026 137.49783666 62.57507237 133.904671 60.29101562 130.31152344 C52.86958879 118.63779674 45.42994472 106.97601127 37.96801758 95.328125 C33.56789001 88.45734895 29.18586369 81.57533337 24.8125 74.6875 C18.28389792 64.40902157 11.65899245 54.19438513 5 44 C3.29493878 46.55759183 2.20959852 48.70387407 1.06396484 51.52124023 C0.6895224 52.43747665 0.31507996 53.35371307 -0.07070923 54.29771423 C-0.47276581 55.29130447 -0.87482239 56.28489471 -1.2890625 57.30859375 C-1.92223892 58.86248558 -1.92223892 58.86248558 -2.56820679 60.44776917 C-3.92358195 63.7764235 -5.27427774 67.10695526 -6.625 70.4375 C-7.51142773 72.61535285 -8.39814351 74.79308848 -9.28515625 76.97070312 C-11.44947487 82.28787776 -13.60597522 87.60817112 -15.75793457 92.93035889 C-16.58199011 94.96693015 -17.40741649 97.0029473 -18.23425293 99.03839111 C-19.37563615 101.84848195 -20.51263682 104.66030529 -21.6484375 107.47265625 C-21.99000885 108.31122665 -22.3315802 109.14979706 -22.6835022 110.01377869 C-24.38082469 113.88310317 -24.38082469 113.88310317 -25 118 C-22.48233363 119.83238666 -19.95915177 121.54313414 -17.34375 123.2265625 C-16.56688843 123.73424164 -15.79002686 124.24192078 -14.98962402 124.76498413 C-12.49729723 126.39156683 -9.99877418 128.00834342 -7.5 129.625 C-5.81338637 130.72332021 -4.12718276 131.82227034 -2.44140625 132.921875 C1.70099947 135.62192687 5.84898908 138.31319825 10 141 C8.4543086 145.77776924 6.91524244 150.49447332 4.8125 155.0625 C4.46832031 155.81660156 4.12414063 156.57070312 3.76953125 157.34765625 C3.51558594 157.89292969 3.26164062 158.43820312 3 159 C-16.20138682 151.78803729 -35.12739018 144.02549874 -54 136 C-53.37637889 132.40844164 -52.41242266 129.22613502 -51.05078125 125.84765625 C-50.62627686 124.78925537 -50.20177246 123.73085449 -49.7644043 122.64038086 C-49.28527588 121.45968018 -48.80614746 120.27897949 -48.3125 119.0625 C-47.79376628 117.77557694 -47.2753041 116.48854441 -46.75708008 115.20141602 C-44.84664153 110.46411742 -42.92396775 105.7318173 -41 101 C-40.60180054 100.02059448 -40.20360107 99.04118896 -39.79333496 98.03210449 C-34.68891833 85.48050871 -29.57444719 72.93301908 -24.45703125 60.38671875 C-19.75014966 48.84635275 -15.05634593 37.30074654 -10.375 25.75 C-9.91932144 24.62608353 -9.91932144 24.62608353 -9.45443726 23.47946167 C-6.28454367 15.66031814 -3.12262116 7.83817735 0 0 Z " fill="#4E36EA" transform="translate(1751,1234)"/>
<path d="M0 0 C3.5245176 2.76664983 4.7273485 6.72119689 6.30859375 10.7578125 C6.62704254 11.55191528 6.94549133 12.34601807 7.27359009 13.16418457 C8.33511824 15.81509225 9.38608074 18.47006851 10.4375 21.125 C11.57741739 23.97792776 12.7201634 26.82971287 13.86296082 29.68148804 C14.6662683 31.68668654 15.46866818 33.69224885 16.2702179 35.69815063 C20.38986695 46.00168425 24.5925945 56.27070032 28.79925537 66.53894043 C31.72425636 73.68460889 34.63568702 80.83581873 37.54882812 87.98632812 C39.18267558 91.99662182 40.81966477 96.00561214 42.45898438 100.01367188 C44.39413311 104.74710151 46.3195158 109.4843904 48.23751831 114.22479248 C48.94911382 115.9791254 49.664014 117.73212182 50.38235474 119.48370361 C51.36402005 121.87888701 52.33387328 124.27851657 53.30078125 126.6796875 C53.59237122 127.3834552 53.88396118 128.0872229 54.18438721 128.81231689 C56.11415064 133.65754808 56.11415064 133.65754808 55 137 C45.6076534 142.6775946 37.41686155 143.66123109 26.83698177 141.23963547 C24.09872866 140.56008445 21.37472065 139.83533439 18.6484375 139.109375 C16.66288772 138.61816161 14.67626231 138.13127904 12.68867493 137.64837646 C8.44640493 136.60860052 4.21270993 135.54060921 -0.01651001 134.44897461 C-6.68253552 132.72857039 -13.36308596 131.07068571 -20.04760742 129.42382812 C-26.98171914 127.71257719 -33.91471579 125.99740085 -40.84239197 124.26025391 C-63.51926246 118.57651348 -86.27237109 113.23846962 -109.04534912 107.9552002 C-115.26358743 106.51233348 -121.47994825 105.06150462 -127.69580078 103.60839844 C-129.14926706 103.26863543 -129.14926706 103.26863543 -130.63209629 102.92200851 C-132.51261071 102.48240476 -134.39312208 102.04278798 -136.27363014 101.60315704 C-140.50678546 100.61387944 -144.74030143 99.62614942 -148.97387695 98.63867188 C-149.69440058 98.47060909 -150.4149242 98.30254631 -151.15728188 98.12939072 C-152.77151377 97.75289509 -154.38575557 97.37644189 -156 97 C-156 99.68195486 -155.08070118 101.53968819 -154.078125 104.03515625 C-153.63903809 105.13158447 -153.19995117 106.2280127 -152.74755859 107.35766602 C-152.25336426 108.58026123 -151.75916992 109.80285645 -151.25 111.0625 C-150.73113042 112.35272203 -150.21241796 113.64300726 -149.69384766 114.93334961 C-142.19432022 133.56234105 -134.57475965 152.14334085 -126.9692688 170.72924805 C-126.60735443 171.61402832 -126.24544006 172.49880859 -125.87255859 173.41040039 C-125.55789642 174.17929092 -125.24323425 174.94818146 -124.91903687 175.7403717 C-123.93637208 178.15644144 -122.9665159 180.57743005 -122 183 C-113.25224137 182.40442463 -104.76077917 180.67661369 -96.1875 178.9375 C-93.43205001 178.37864907 -90.67544454 177.82610114 -87.91796875 177.27734375 C-86.10462036 176.90984009 -86.10462036 176.90984009 -84.25463867 176.53491211 C-81.41917014 176.06889219 -78.86289852 175.88945946 -76 176 C-73.1981508 181.91382675 -70.55696591 187.630594 -69 194 C-76.34650936 197.39957803 -83.74804518 200.60442203 -91.25 203.64453125 C-92.780802 204.26650642 -92.780802 204.26650642 -94.3425293 204.90104675 C-96.47638076 205.76690667 -98.61074524 206.63150331 -100.74560547 207.49487305 C-104.02145689 208.82118738 -107.2939424 210.15558725 -110.56640625 211.49023438 C-112.64823703 212.33382822 -114.73026135 213.17694465 -116.8125 214.01953125 C-118.27961426 214.61940605 -118.27961426 214.61940605 -119.77636719 215.23139954 C-120.68161133 215.59565536 -121.58685547 215.95991119 -122.51953125 216.33520508 C-123.31464111 216.65765701 -124.10975098 216.98010895 -124.92895508 217.31233215 C-127 218 -127 218 -130 218 C-130.24830566 217.37399902 -130.49661133 216.74799805 -130.75244141 216.10302734 C-138.94892736 195.46798251 -147.31954704 174.90485726 -155.70483398 154.34594727 C-156.66000279 152.0040728 -157.61516237 149.66219458 -158.5703125 147.3203125 C-159.27109673 145.60215584 -159.27109673 145.60215584 -159.98603821 143.84928894 C-164.66732917 132.36892986 -169.32812156 120.88031 -173.97802734 109.38720703 C-176.75611845 102.5224451 -179.54443986 95.66224658 -182.359375 88.8125 C-182.88651807 87.52760572 -183.41361885 86.24269409 -183.94067383 84.95776367 C-184.90885747 82.5999183 -185.87986024 80.24322771 -186.85424805 77.88793945 C-187.27230713 76.86917725 -187.69036621 75.85041504 -188.12109375 74.80078125 C-188.4864624 73.91559814 -188.85183105 73.03041504 -189.22827148 72.1184082 C-190 70 -190 70 -190 68 C-187.69651532 66.95296151 -185.38599638 65.93835661 -183.0625 64.9375 C-182.42248047 64.64294922 -181.78246094 64.34839844 -181.12304688 64.04492188 C-172.14483633 60.24816617 -162.99210245 63.54980896 -153.88916016 65.73706055 C-152.70489944 66.01707916 -151.52063873 66.29709778 -150.30049133 66.58560181 C-147.05861743 67.35325252 -143.81794267 68.12564181 -140.57770586 68.90015388 C-137.1162372 69.72630576 -133.65329522 70.54623759 -130.19052124 71.36689758 C-123.5735468 72.93606381 -116.95788269 74.51068325 -110.34267843 76.08729345 C-103.05049767 77.82499993 -95.75696437 79.55699086 -88.46325922 81.28828597 C-76.30957285 84.1732994 -64.15688862 87.06250659 -52.00488281 89.95458984 C-35.73298233 93.82709569 -19.45896895 97.69067121 -3.18427229 101.5514071 C-1.21821723 102.01780432 0.74783167 102.48422744 2.71387863 102.9506588 C9.80920714 104.63396346 16.90457371 106.31710755 24 108 C23.6260559 107.13128911 23.6260559 107.13128911 23.24455738 106.2450285 C14.21782415 85.26289105 14.21782415 85.26289105 10.54296875 76.11328125 C10.01030144 74.79507637 10.01030144 74.79507637 9.46687317 73.45024109 C8.37166878 70.73849428 7.27951248 68.02553348 6.1875 65.3125 C5.44356088 63.4693197 4.69942062 61.62622057 3.95507812 59.78320312 C0.4790399 51.17207667 0.4790399 51.17207667 -1.04434204 47.3722229 C-1.73180023 45.66575036 -2.42631935 43.96211614 -3.12533569 42.26034546 C-3.4922049 41.36127472 -3.8590741 40.46220398 -4.23706055 39.53588867 C-4.74259712 38.30608528 -4.74259712 38.30608528 -5.25834656 37.05143738 C-6 35 -6 35 -6 33 C-7.11971191 33.21205078 -8.23942383 33.42410156 -9.39306641 33.64257812 C-13.56294486 34.43077753 -17.73413983 35.21180795 -21.90576172 35.99072266 C-23.70821013 36.32829739 -25.51029982 36.66779352 -27.31201172 37.00927734 C-29.90759961 37.50087682 -32.50441554 37.98546371 -35.1015625 38.46875 C-35.9017984 38.62186646 -36.7020343 38.77498291 -37.52651978 38.93273926 C-41.7475168 39.71075479 -45.68512619 40.16897408 -50 40 C-51.00419637 37.5433053 -52.00350501 35.08481647 -53 32.625 C-53.28617188 31.92632813 -53.57234375 31.22765625 -53.8671875 30.5078125 C-56 25.2265625 -56 25.2265625 -56 23 C-55.21311798 22.67839653 -55.21311798 22.67839653 -54.41033936 22.35029602 C-48.89347755 20.09542726 -43.37685015 17.83998573 -37.86035156 15.58422852 C-35.80832691 14.74521781 -33.75624481 13.90634757 -31.70410156 13.06762695 C-15.83126298 6.58413948 -15.83126298 6.58413948 0 0 Z " fill="#4E36EA" transform="translate(1930,561)"/>
<path d="M0 0 C3.48654476 1.4841373 5.64191072 3.46214052 8.25 6.1875 C10.95015414 9.00098177 13.71340031 11.64026437 16.671875 14.17578125 C22.62335011 19.33219605 28.05556172 25.01094902 33.578125 30.6171875 C37.99400945 35.07370892 42.45801478 39.38005929 47.21826172 43.46728516 C49.74120086 45.63760742 52.16172321 47.88202122 54.5625 50.1875 C55.43003906 51.00605469 56.29757812 51.82460937 57.19140625 52.66796875 C59 55 59 55 58.98046875 57.0625 C57.82323501 59.34930453 56.53424639 60.97007167 54.75 62.8125 C54.16734375 63.43769531 53.5846875 64.06289063 52.984375 64.70703125 C51 66 51 66 48.78515625 65.984375 C44.81655676 64.58172834 41.31513743 62.5544323 37.6875 60.4375 C36.94693359 60.01275391 36.20636719 59.58800781 35.44335938 59.15039062 C33.62531882 58.10648347 31.81216252 57.05407808 30 56 C27.69944697 59.45082954 26.7734515 62.84181095 25.69335938 66.78857422 C25.47194778 67.58077362 25.25053619 68.37297302 25.02241516 69.18917847 C24.29125478 71.80966739 23.56760225 74.43217142 22.84375 77.0546875 C22.33628297 78.87703486 21.82825926 80.69922729 21.31970215 82.52127075 C19.98102579 87.32180277 18.64831692 92.12396906 17.31732178 96.92663574 C15.18816561 104.60724344 13.05203803 112.28590501 10.9120636 119.96350479 C10.1660775 122.6443702 9.42386516 125.32626011 8.68200684 128.00827026 C8.22368305 129.65642902 7.76523429 131.30455303 7.30664062 132.95263672 C7.10190628 133.69670776 6.89717194 134.44077881 6.68623352 135.20739746 C5.65393454 138.90399816 4.51242064 142.47085672 3 146 C3.87901978 145.72295731 4.75803955 145.44591461 5.66369629 145.16047668 C14.01742333 142.52765117 22.37120957 139.89501355 30.72505951 137.26257801 C35.01807274 135.9097719 39.31106441 134.55689748 43.60400391 133.20385742 C47.7601752 131.89392663 51.91640691 130.5841877 56.07267761 129.27457237 C57.64481179 128.77916749 59.21692552 128.28369773 60.78901672 127.78815651 C64.44020322 126.63728215 68.09167728 125.48734539 71.74389648 124.3397522 C74.69050207 123.41363031 77.63492152 122.48087699 80.57836914 121.54476929 C82.04246647 121.08147838 83.50657729 120.61823011 84.97070312 120.1550293 C85.64959343 119.93779363 86.32848373 119.72055796 87.02794647 119.49673939 C91.77379309 118 91.77379309 118 94 118 C93.66154053 117.47567383 93.32308105 116.95134766 92.97436523 116.41113281 C91.44899018 114.03218955 89.94316667 111.64146083 88.4375 109.25 C87.90447266 108.425 87.37144531 107.6 86.82226562 106.75 C86.32275391 105.95078125 85.82324219 105.1515625 85.30859375 104.328125 C84.84251709 103.5949707 84.37644043 102.86181641 83.89624023 102.10644531 C82.8123657 99.55900061 82.98410647 98.53707442 84 96 C85.62890625 93.859375 85.62890625 93.859375 87.5625 91.75 C88.20316406 91.04359375 88.84382813 90.3371875 89.50390625 89.609375 C90.24447266 88.81273437 90.24447266 88.81273437 91 88 C94.8482326 89.60495009 97.62801655 92.18252703 100.625 95 C101.17696045 95.51328857 101.7289209 96.02657715 102.29760742 96.55541992 C108.1926098 102.08909229 113.88503652 107.82906879 119.55517578 113.59179688 C123.65622899 117.74146467 127.84673928 121.69315994 132.27026367 125.49731445 C134.26613116 127.23119793 136.15014624 129.04910762 138 130.9375 C138.5775 131.52402344 139.155 132.11054688 139.75 132.71484375 C140.36875 133.35099609 140.36875 133.35099609 141 134 C140.11032656 135.08839774 139.21288426 136.17044608 138.3125 137.25 C137.81363281 137.85328125 137.31476563 138.4565625 136.80078125 139.078125 C134.7086495 141.3109424 132.42150931 143.13539658 130 145 C129.48203857 144.65106689 128.96407715 144.30213379 128.43041992 143.94262695 C126.03874765 142.36153809 123.61512368 140.83775641 121.1875 139.3125 C120.37345703 138.76271484 119.55941406 138.21292969 118.72070312 137.64648438 C113.97978656 134.69139539 113.97978656 134.69139539 108.56594849 134.30059814 C107.31151443 134.6975589 107.31151443 134.6975589 106.03173828 135.10253906 C105.06852158 135.397397 104.10530487 135.69225494 103.11289978 135.99604797 C102.08564285 136.32735214 101.05838593 136.65865631 100 137 C98.4227993 137.48033943 98.4227993 137.48033943 96.81373596 137.97038269 C93.29035438 139.04362192 89.77576169 140.14267674 86.26171875 141.24609375 C84.94494078 141.65784159 83.62810585 142.06940732 82.31121826 142.48080444 C75.93350424 144.47450327 69.558719 146.47752286 63.18418217 148.48135281 C60.29394792 149.38988601 57.40361097 150.29809201 54.51321602 151.20611382 C53.07745348 151.65720496 51.64173746 152.10844421 50.20606804 152.55983162 C41.34683162 155.3442913 32.47476737 158.07921462 23.578125 160.7421875 C20.98808616 161.5262387 18.39862921 162.31217219 15.80947876 163.09915161 C14.24688824 163.56908475 12.68194195 164.03126511 11.11459351 164.4850769 C2.83749102 166.88304623 -3.59577747 168.99547576 -9 176 C-10.09496065 177.27393341 -11.1968287 178.54195473 -12.3046875 179.8046875 C-12.88186523 180.47338867 -13.45904297 181.14208984 -14.05371094 181.83105469 C-17.89177589 186.10819581 -22.03272504 190.09317223 -26.125 194.125 C-34.07267763 201.61816685 -34.07267763 201.61816685 -41 210 C-40.6158978 213.17025827 -39.28531095 215.37942086 -37.53125 218.00390625 C-37.04269531 218.74447266 -36.55414062 219.48503906 -36.05078125 220.24804688 C-35.28314453 221.39370117 -35.28314453 221.39370117 -34.5 222.5625 C-33.48657655 224.08263518 -32.47603197 225.60469462 -31.46875 227.12890625 C-31.01951172 227.79994385 -30.57027344 228.47098145 -30.10742188 229.16235352 C-29 231 -29 231 -28 234 C-31.3 237.3 -34.6 240.6 -38 244 C-44.72175754 238.43312161 -50.7670994 232.2914864 -56.88476562 226.07617188 C-60.4864244 222.43968643 -64.08172225 218.86347645 -67.96875 215.53125 C-72.93424974 211.26953163 -77.47290426 206.59626825 -82.0625 201.9375 C-87.53430907 196.38359327 -92.98683048 190.96881986 -99 186 C-97.52487842 182.92543087 -96.00176371 180.65248419 -93.625 178.1875 C-93.03976562 177.56230469 -92.45453125 176.93710937 -91.8515625 176.29296875 C-90 175 -90 175 -88.14599609 175.26049805 C-85.76287599 176.08171202 -83.92264943 177.16160385 -81.8125 178.5390625 C-81.03132813 179.03664063 -80.25015625 179.53421875 -79.4453125 180.046875 C-77.81153542 181.10126148 -76.18132423 182.16119339 -74.5546875 183.2265625 C-73.77351563 183.7215625 -72.99234375 184.2165625 -72.1875 184.7265625 C-71.47980469 185.18627441 -70.77210937 185.64598633 -70.04296875 186.11962891 C-68.05758463 187.16190524 -68.05758463 187.16190524 -65.96606445 186.84936523 C-63.56625785 185.81261779 -62.1895532 184.54601892 -60.35546875 182.68359375 C-59.67806641 182.00103516 -59.00066406 181.31847656 -58.30273438 180.61523438 C-57.25569336 179.53725586 -57.25569336 179.53725586 -56.1875 178.4375 C-55.15786133 177.40012695 -55.15786133 177.40012695 -54.10742188 176.34179688 C-50.73821873 172.92159349 -47.48862453 169.44492298 -44.3671875 165.796875 C-42.33289174 163.43399116 -40.30927043 161.31318529 -37.90234375 159.33203125 C-31.23342242 153.66476609 -28.08865229 148.86266434 -25.97338867 140.34960938 C-25.72808757 139.42983559 -25.48278646 138.5100618 -25.23005199 137.56241608 C-24.72119737 135.6491154 -24.2202554 133.7336934 -23.727108 131.81628418 C-23.04423243 129.17132404 -22.33618359 126.53503417 -21.61465454 123.90039062 C-20.21900832 118.80351335 -18.85196039 113.69925925 -17.48828125 108.59375 C-16.98846806 106.72674181 -16.4885626 104.85975832 -15.98857117 102.99279785 C-14.95303144 99.12441982 -13.91879433 95.25569661 -12.88549805 91.38671875 C-11.5704425 86.46329157 -10.25172464 81.54085369 -8.93200397 76.61867523 C-7.90346238 72.78066068 -6.8770261 68.9420854 -5.85118675 65.10334778 C-5.36591374 63.28853771 -4.87997217 61.47390626 -4.39330482 59.6594696 C-3.09497741 54.81678047 -1.81177385 49.97070103 -0.55428886 45.117239 C-0.0283169 43.10816318 0.51736014 41.1053003 1.06529236 39.10212708 C1.510812 37.38348701 1.510812 37.38348701 1.96533203 35.63012695 C2.22468536 34.66105911 2.4840387 33.69199127 2.75125122 32.69355774 C3.23637786 27.44039986 0.2142456 23.7264259 -2.8125 19.6875 C-3.69131836 18.41616211 -3.69131836 18.41616211 -4.58789062 17.11914062 C-6.02479231 15.05140405 -7.49290188 13.01682836 -9 11 C-8.06558465 9.72689688 -7.12732889 8.456612 -6.1875 7.1875 C-5.66542969 6.47980469 -5.14335938 5.77210938 -4.60546875 5.04296875 C-3.16871123 3.21468607 -1.68184237 1.60103312 0 0 Z " fill="#4E36EA" transform="translate(1642,198)"/>
<path d="M0 0 C3.21524305 1.40844718 5.32183868 3.10344786 7.75 5.625 C8.36359375 6.25664063 8.9771875 6.88828125 9.609375 7.5390625 C10.06828125 8.02117187 10.5271875 8.50328125 11 9 C9.26675455 14.09440099 6.21806229 18.21689163 3.01367188 22.4765625 C0.2129106 26.53563681 -0.22701035 29.17482893 0.45890808 34.15994263 C1.65483001 40.4370404 3.44144948 46.57201468 5.15625 52.72265625 C5.58223734 54.26965352 6.00763976 55.81681196 6.43249512 57.36412048 C7.55399511 61.44204252 8.68380928 65.51761614 9.81530762 69.59277344 C10.93168781 73.61962386 12.03967193 77.64878203 13.1484375 81.67773438 C14.46041267 86.44465884 15.77601704 91.21046917 17.10717773 95.97207642 C19.05849087 102.95512615 20.9979953 109.93822922 22.82511139 116.95499134 C23.59433482 119.90168692 24.38007348 122.84385297 25.16770935 125.78567314 C25.52889145 127.15257157 25.88218617 128.52158397 26.22669983 129.8927784 C28.33167649 138.25994641 30.63247275 144.0867005 37 150 C38.09611178 151.11226078 39.19021087 152.22651292 40.28125 153.34375 C41.3522672 154.39776692 42.4252036 155.44983705 43.5 156.5 C47.52534745 160.47531489 51.37713854 164.49361903 55.03515625 168.8125 C59.78231793 174.09761042 64.94411203 179.01253758 70 184 C76.22157497 182.31295851 80.98580508 178.94081656 86.25390625 175.36914062 C87.27677734 174.70108398 87.27677734 174.70108398 88.3203125 174.01953125 C88.93148926 173.60807861 89.54266602 173.19662598 90.17236328 172.77270508 C92.53709986 171.77291998 93.6402614 172.07402663 96 173 C97.921875 174.84765625 97.921875 174.84765625 99.75 177.0625 C100.36359375 177.79597656 100.9771875 178.52945312 101.609375 179.28515625 C102.06828125 179.85105469 102.5271875 180.41695312 103 181 C101.41815798 184.83834246 98.97711011 187.26666848 96.0546875 190.17578125 C95.56598175 190.66402878 95.077276 191.15227631 94.57376099 191.65531921 C93.53884333 192.68722198 92.50150249 193.71669944 91.46191406 194.74389648 C89.89599331 196.29174892 88.33803642 197.8472635 86.78125 199.40429688 C81.98996646 204.17804046 77.13730753 208.81783611 71.99755859 213.21850586 C67.769017 216.98967037 63.84992232 221.09048364 59.875 225.125 C48.37735147 236.79349026 48.37735147 236.79349026 44 240 C41 240 41 240 39.17578125 238.390625 C38.56089844 237.68421875 37.94601562 236.9778125 37.3125 236.25 C36.68988281 235.55390625 36.06726562 234.8578125 35.42578125 234.140625 C34 232 34 232 34 228 C35.11743164 225.95703125 35.11743164 225.95703125 36.66015625 223.8125 C37.20607422 223.03132813 37.75199219 222.25015625 38.31445312 221.4453125 C39.48114025 219.81325409 40.65041986 218.18304588 41.82226562 216.5546875 C42.36689453 215.77351563 42.91152344 214.99234375 43.47265625 214.1875 C44.23461304 213.12595703 44.23461304 213.12595703 45.01196289 212.04296875 C46.18052635 210.06746398 46.18052635 210.06746398 45.83178711 207.9440918 C44.89610779 205.75717826 43.85730953 204.42890302 42.21875 202.70703125 C41.6319043 202.08473633 41.04505859 201.46244141 40.44042969 200.82128906 C39.80008789 200.15838867 39.15974609 199.49548828 38.5 198.8125 C37.84161133 198.11995117 37.18322266 197.42740234 36.50488281 196.71386719 C30.62659229 190.5655005 24.6133808 184.54953389 18.54882812 178.58520508 C17.86755859 177.91255615 17.18628906 177.23990723 16.484375 176.546875 C15.88334961 175.95745117 15.28232422 175.36802734 14.66308594 174.76074219 C13 173 13 173 11.85209656 171.05085754 C9.26861312 168.19012305 6.29694571 167.46394879 2.70336914 166.42553711 C1.96096481 166.19878296 1.21856049 165.97202881 0.45365906 165.73840332 C-2.01533302 164.98794242 -4.48984929 164.25774179 -6.96484375 163.52734375 C-8.7131514 163.00015761 -10.46107488 162.47169591 -12.20863342 161.94203186 C-16.84197668 160.54137155 -21.48020418 159.15762224 -26.11968994 157.77746582 C-31.59793722 156.14444572 -37.07030013 154.49183662 -42.54319954 152.8409996 C-47.04562823 151.48396475 -51.55003517 150.13443602 -56.05953979 148.80108643 C-64.00565361 146.44614428 -71.92835554 144.0593567 -79.78501415 141.41880703 C-83.06704142 140.31597312 -86.35730231 139.23887453 -89.64785957 138.16180611 C-91.17421678 137.65291852 -92.69605432 137.13022604 -94.21250725 136.59254265 C-104.21784624 133.01321417 -104.21784624 133.01321417 -114.48803711 134.94897461 C-118.59903965 137.07676851 -122.07366605 139.68922283 -125.37304688 142.92919922 C-127 144 -127 144 -129.08496094 143.78393555 C-131.71221569 142.70844919 -132.95361361 141.11389121 -134.75 138.9375 C-135.36359375 138.20402344 -135.9771875 137.47054688 -136.609375 136.71484375 C-137.06828125 136.14894531 -137.5271875 135.58304688 -138 135 C-136.49089988 131.45879942 -134.42880686 129.18395635 -131.7109375 126.48046875 C-130.85113281 125.62259766 -129.99132813 124.76472656 -129.10546875 123.88085938 C-127.75388672 122.54764648 -127.75388672 122.54764648 -126.375 121.1875 C-125.49714844 120.31029297 -124.61929687 119.43308594 -123.71484375 118.52929688 C-119.90706158 114.74697535 -116.09234371 111.01990165 -112.015625 107.52734375 C-106.85698128 103.09476513 -102.14735645 98.2151456 -97.375 93.375 C-86.42825077 82.27407121 -86.42825077 82.27407121 -81 78 C-77.55571735 79.44781793 -75.63869038 81.27694609 -73.25 84.125 C-72.63640625 84.84945313 -72.0228125 85.57390625 -71.390625 86.3203125 C-70.93171875 86.87460938 -70.4728125 87.42890625 -70 88 C-70.44730469 88.76183594 -70.89460938 89.52367187 -71.35546875 90.30859375 C-74.97997653 96.49885118 -78.54524562 102.71352357 -82 109 C-80.83122314 109.22888916 -79.66244629 109.45777832 -78.45825195 109.69360352 C-72.11833129 111.10675135 -65.98562989 113.16692256 -59.82188988 115.19407463 C-57.62224179 115.91738004 -55.42089559 116.63529509 -53.21907043 117.35194397 C-48.54035099 118.87579936 -43.86377993 120.40617747 -39.1875 121.9375 C-33.77182251 123.71087137 -28.35525485 125.48142613 -22.93645668 127.24524117 C-20.78865167 127.94586424 -18.64249694 128.65137768 -16.49638367 129.35716248 C-8.73582271 131.89368571 -0.95979266 134.15895832 7 136 C4.7766285 127.80844611 2.55075274 119.61757805 0.3219595 111.42749786 C-0.7136808 107.62157441 -1.74856113 103.81544825 -2.78149414 100.00878906 C-7.68154342 81.95303385 -12.6622499 63.93253975 -18 46 C-18.57453918 46.33241196 -19.14907837 46.66482391 -19.74102783 47.00730896 C-21.32439187 47.92339816 -22.90799918 48.83906699 -24.49182129 49.75436401 C-26.16045306 50.72098249 -27.8250118 51.69463992 -29.48730469 52.67211914 C-30.20821289 53.08067139 -30.92912109 53.48922363 -31.671875 53.91015625 C-32.4050293 54.33433838 -33.13818359 54.75852051 -33.89355469 55.19555664 C-36.42346265 56.16171876 -37.51443744 56.00262397 -40 55 C-41.921875 53.15234375 -41.921875 53.15234375 -43.75 50.9375 C-44.36359375 50.20402344 -44.9771875 49.47054688 -45.609375 48.71484375 C-46.06828125 48.14894531 -46.5271875 47.58304688 -47 47 C-45.68729086 44.09778672 -44.28101018 42.03287708 -42.0234375 39.79296875 C-41.43433594 39.20580078 -40.84523438 38.61863281 -40.23828125 38.01367188 C-39.31595703 37.1097168 -39.31595703 37.1097168 -38.375 36.1875 C-37.78332031 35.59646484 -37.19164062 35.00542969 -36.58203125 34.39648438 C-33.53779895 31.38183965 -30.43627521 28.48397047 -27.18359375 25.6953125 C-22.0898805 21.28985547 -17.41194193 16.48167539 -12.6875 11.6875 C-10.9229121 9.89743068 -9.15608696 8.10956319 -7.38671875 6.32421875 C-6.61545654 5.54135498 -5.84419434 4.75849121 -5.04956055 3.9519043 C-3 2 -3 2 0 0 Z " fill="#4E36EA" transform="translate(1606,1512)"/>
<path d="M0 0 C1.08667969 0.87398437 1.08667969 0.87398437 2.1953125 1.765625 C2.79601562 2.20390625 3.39671875 2.6421875 4.015625 3.09375 C23.31775916 17.99679312 33.89465429 46.16787404 43.81152344 67.51611328 C49.80601686 81.85283769 49.80601686 81.85283769 60.1953125 92.765625 C65.38911288 92.765625 69.55105646 90.21626497 74.0234375 87.82421875 C76.1953125 86.765625 76.1953125 86.765625 78.1953125 86.765625 C78.92298253 88.00446819 79.62686065 89.25730841 80.3203125 90.515625 C80.71476563 91.21171875 81.10921875 91.9078125 81.515625 92.625 C82.1953125 94.765625 82.1953125 94.765625 81.65625 96.66796875 C79.61969557 99.59211241 77.21976038 102.08045335 74.6953125 104.578125 C74.16139893 105.10784912 73.62748535 105.63757324 73.07739258 106.18334961 C68.49214377 110.6405683 63.69098544 114.4701428 58.1953125 117.765625 C57.27492188 118.32056641 57.27492188 118.32056641 56.3359375 118.88671875 C52.35270395 120.94228652 48.72498443 121.22775695 44.390625 120.5078125 C35.7268521 117.57877896 31.94700896 107.34884124 28.1953125 99.765625 C27.97617187 100.78140625 27.75703125 101.7971875 27.53125 102.84375 C23.2120842 121.96282194 14.22233184 137.20618449 -2.5546875 147.953125 C-13.54293951 154.19150856 -25.17986794 157.04991551 -37.734375 154.0703125 C-48.91062406 150.02783944 -54.61308489 141.91184915 -59.91015625 131.6171875 C-63.40548096 123.05118047 -63.13154239 111.63364377 -60.2421875 102.953125 C-50.64887576 80.67938044 -26.31355634 57.52005942 -4.8046875 46.765625 C-6.55829405 35.78535012 -18.6797113 22.4268357 -27.109375 16.01171875 C-34.11111441 11.51060056 -40.54362989 10.82357457 -48.8046875 11.765625 C-56.21053217 14.21095107 -62.72321001 17.95808605 -66.8046875 24.765625 C-68.19673814 28.01180946 -68.19673814 28.01180946 -68.8046875 30.765625 C-67.9590625 30.930625 -67.1134375 31.095625 -66.2421875 31.265625 C-61.14142773 33.49141108 -57.3038261 37.7673478 -54.8046875 42.765625 C-54.2808299 48.02137665 -54.13963378 52.41088595 -56.4921875 57.203125 C-61.3540219 62.59056312 -65.79341073 65.7383227 -73.1171875 66.203125 C-78.34443719 66.03787085 -82.07006489 64.44329258 -85.8046875 60.765625 C-90.7821111 53.00924281 -92.61823126 45.91504464 -91.8046875 36.765625 C-88.60536526 22.25659677 -77.68274857 10.6165479 -65.6640625 2.53125 C-45.32028017 -10.03075767 -20.44185379 -15.64360515 0 0 Z M-4.4296875 59.828125 C-7.58270751 62.72708872 -10.74330434 65.59951011 -13.9921875 68.390625 C-24.31702008 77.45076926 -33.4091367 86.99994737 -35.2421875 101.140625 C-34.1003262 110.60176146 -30.16302783 119.03088462 -22.9921875 125.3671875 C-18.65491694 128.49771746 -14.73394665 129.60843781 -9.390625 129.3125 C-2.47885655 127.8507967 3.49623659 123.39628578 7.81640625 117.89453125 C14.4550639 107.64504565 17.29161141 98.94099168 16.1953125 86.765625 C13.67365287 75.35050239 8.17070874 65.67254557 2.1953125 55.765625 C-0.93277592 55.765625 -2.17903451 57.74121921 -4.4296875 59.828125 Z " fill="#4E36EA" transform="translate(619.8046875,127.234375)"/>
<path d="M0 0 C1.31460205 0.00241699 1.31460205 0.00241699 2.65576172 0.00488281 C10.76370891 0.15554971 17.81318194 1.72341733 25.5 4.375 C26.386875 4.65214844 27.27375 4.92929688 28.1875 5.21484375 C41.58876369 9.87521911 53.86977021 19.99814737 60.4375 32.5625 C67.67550152 47.79084011 65.77368672 65.85216621 60.5 81.375 C60.1194043 82.50075439 59.73880859 83.62650879 59.34667969 84.78637695 C55.01151274 96.92468156 49.24915991 108.23221563 43.375 119.6875 C41.88288525 122.60315716 40.3934951 125.52007175 38.91165161 128.44096375 C37.99842137 130.24065344 37.07949846 132.03747171 36.15353394 133.8306427 C29.75381871 145.57725349 29.75381871 145.57725349 28.5 158.375 C31.34494467 161.7583571 34.21625656 163.39625281 38.25 165.125 C39.23484375 165.55296875 40.2196875 165.9809375 41.234375 166.421875 C41.98203125 166.73640625 42.7296875 167.0509375 43.5 167.375 C42.16666667 174.45833333 42.16666667 174.45833333 39.5 177.375 C33.32958568 178.30270237 27.01488689 176.95161604 21 175.625 C20.16774902 175.44453125 19.33549805 175.2640625 18.47802734 175.078125 C10.61426443 173.29869957 3.42553841 171.11536534 -2.5 165.375 C-5.56648578 156.17554265 -2.08550949 148.86266509 1.5 140.375 C1.83 139.385 2.16 138.395 2.5 137.375 C1.84515625 137.70113281 1.1903125 138.02726562 0.515625 138.36328125 C-15.86032764 146.20430942 -33.94109399 148.49028418 -51.390625 142.6328125 C-63.54522557 137.71600172 -73.89440039 131.0587515 -79.46484375 118.78515625 C-82.21310416 109.73145309 -81.61870464 99.66362239 -77.88671875 90.96875 C-72.1032719 80.15126068 -65.40016767 73.39351586 -53.9375 69 C-27.84686809 61.76273847 2.68197462 70.86190367 27.5 79.375 C27.61472656 78.69953125 27.72945312 78.0240625 27.84765625 77.328125 C28.62053813 73.82933037 29.76324618 70.50327069 30.9375 67.125 C35.06355033 54.88118554 38.63883737 41.99134203 32.8828125 29.59375 C28.48643444 22.53967447 21.4824037 18.31508641 13.5 16.375 C6.82241413 15.68411767 6.82241413 15.68411767 0.5 17.375 C0.55800781 18.2928125 0.61601563 19.210625 0.67578125 20.15625 C0.96165019 27.93188514 0.92072951 33.48963653 -4.5 39.375 C-8.6447969 43.15407953 -12.65114578 43.73193445 -18.08984375 43.65234375 C-23.58503916 43.01999549 -27.83808468 40.44821788 -31.4375 36.3125 C-34.62474163 31.77309525 -35.01534254 27.79095836 -34.5 22.375 C-32.98258524 15.1777208 -28.632906 9.11944446 -22.51171875 5.0546875 C-15.25919793 1.25239503 -8.10769452 -0.01561875 0 0 Z M-40.5 92.375 C-45.16203255 98.2268221 -48.66823755 105.41564954 -48.41015625 113.0234375 C-47.51572929 118.6966599 -45.82825551 122.42311453 -41.5 126.375 C-32.82190548 131.74058131 -23.82966183 132.61588966 -13.77734375 130.9140625 C-2.70047221 127.92980234 5.34003614 122.0215034 11.5 112.375 C18.45649529 100.92311168 18.45649529 100.92311168 21.5 88.375 C17.83464273 87.55651779 14.16750237 86.74631128 10.5 85.9375 C9.47003906 85.70740234 8.44007813 85.47730469 7.37890625 85.24023438 C-9.35663095 81.56268002 -27.86349951 78.32817579 -40.5 92.375 Z " fill="#4E36EA" transform="translate(600.5,1751.625)"/>
<path d="M0 0 C7.02385581 5.07328184 13.0656073 10.6718234 19.00390625 16.96484375 C16.96343899 20.59661882 14.7177224 23.54752823 11.87890625 26.58984375 C8.63302751 30.12984743 5.52100373 33.7278774 2.50390625 37.46484375 C-1.10758509 41.92904832 -4.88270069 46.19486489 -8.75 50.4375 C-11.05796973 53.03446768 -13.25165238 55.69888388 -15.43359375 58.40234375 C-18.50945963 62.20571878 -21.68362541 65.86567027 -24.99609375 69.46484375 C-31.33676102 76.35859103 -37.15107837 83.65202181 -42.99609375 90.96484375 C-34.69786082 100.09289997 -22.0733948 108.34269166 -9.51953125 109.203125 C-1.50632622 109.41619064 5.00061743 109.32680597 12.00390625 104.96484375 C13.03515625 104.36671875 14.06640625 103.76859375 15.12890625 103.15234375 C25.9759076 94.89919055 33.10259868 83.53203754 35.72412109 70.04541016 C36.66011468 63.0850809 36.27245239 55.96196251 36.00390625 48.96484375 C37.94027665 48.46048681 39.87804771 47.96150501 41.81640625 47.46484375 C42.89535156 47.18640625 43.97429687 46.90796875 45.0859375 46.62109375 C48.00390625 45.96484375 48.00390625 45.96484375 51.00390625 45.96484375 C55.6245685 63.83756532 54.70232561 84.3368546 46.19140625 100.90234375 C43.1987077 105.92526493 39.7481184 110.48338628 36.00390625 114.96484375 C35.483125 115.63128906 34.96234375 116.29773438 34.42578125 116.984375 C24.26628829 129.48646949 9.84046017 137.4427259 -5.99609375 139.96484375 C-27.14833187 141.73156387 -45.80539271 133.08165807 -61.99609375 119.96484375 C-79.565095 105.08987925 -96.57510091 86.70234508 -99.99609375 62.96484375 C-101.13602903 44.59644437 -98.18194319 28.70316716 -86.6484375 13.96484375 C-84.49774947 11.55205184 -82.2899684 9.24097082 -79.99609375 6.96484375 C-79.17109375 6.07796875 -78.34609375 5.19109375 -77.49609375 4.27734375 C-54.66442842 -16.84194668 -25.43685347 -17.27848847 0 0 Z M-70.72265625 22.88671875 C-76.368508 30.06223476 -78.64834042 36.38020924 -78.40625 45.55859375 C-76.74801628 59.32982994 -67.0894207 70.1865649 -57.99609375 79.96484375 C-54.17980543 78.41911599 -52.02583632 76.0771313 -49.30859375 73.02734375 C-48.65612671 72.29753296 -48.65612671 72.29753296 -47.99047852 71.55297852 C-44.26864785 67.35587689 -40.73376921 63.01328172 -37.2109375 58.6484375 C-34.34007515 55.16998524 -31.30804719 51.85514357 -28.26953125 48.5234375 C-25.03677005 44.88519251 -21.98796271 41.10704612 -18.94140625 37.3125 C-17.36748959 35.41305439 -15.77940779 33.6640392 -13.99609375 31.96484375 C-15.53643255 27.7532845 -18.64891877 25.55907055 -22.12109375 22.96484375 C-22.70785889 22.52205078 -23.29462402 22.07925781 -23.89916992 21.62304688 C-39.10708313 10.34644521 -57.03015832 7.64529572 -70.72265625 22.88671875 Z " fill="#4E36EA" transform="translate(345.99609375,343.03515625)"/>
<path d="M0 0 C14.22949585 11.18185119 26.72866414 25.74633305 30 44 C31.83075642 62.19940136 27.40745439 77.67516651 16.125 92.1875 C9.36627212 100.27497589 2.06934119 107.49099792 -7 113 C-7.99 113 -8.98 113 -10 113 C-11.9453125 110.9453125 -11.9453125 110.9453125 -14.125 108.125 C-17.14615851 104.3021101 -20.20786911 100.59246564 -23.5 97 C-26.59555196 93.60401318 -29.55151207 90.13828469 -32.4375 86.5625 C-35.51336588 82.75912497 -38.68753166 79.09917348 -42 75.5 C-46.10934657 71.03497583 -49.96235486 66.4193052 -53.7734375 61.69921875 C-57.37189709 57.33687563 -61.19901839 53.18535053 -65 49 C-71 42.33333333 -71 42.33333333 -71 40 C-82.74911833 48.21350402 -91.21227226 59.35053502 -95.671875 73.06640625 C-97.62215361 84.55911951 -94.88281277 94.06407838 -88.5 103.625 C-76.61657445 119.00096651 -60.27763701 123.30760557 -42 126 C-41.505 133.425 -41.505 133.425 -41 141 C-64.74604035 141.64178487 -84.66742934 137.5599869 -102.58154297 120.86767578 C-115.30192432 108.56580746 -124.87586623 92.51062106 -125.29248047 74.46484375 C-125.44399057 55.81062393 -119.02213122 42.09653818 -107 28 C-106.44570313 27.31164063 -105.89140625 26.62328125 -105.3203125 25.9140625 C-100.53774404 20.12463752 -94.92251561 15.5830911 -89 11 C-88.15695312 10.3296875 -87.31390625 9.659375 -86.4453125 8.96875 C-61.24035899 -10.33717184 -28.09804221 -18.8018196 0 0 Z M-59 28 C-57.58079997 32.46034294 -55.13383273 35.32847558 -51.9375 38.625 C-47.45730997 43.36985502 -43.27422024 48.26618198 -39.1796875 53.3515625 C-36.3245776 56.82067452 -33.30297048 60.12095864 -30.2734375 63.4375 C-27.0257535 67.09811977 -23.98449588 70.9156181 -20.9453125 74.75 C-19.01944456 77.17960253 -19.01944456 77.17960253 -16 79 C-0.0830991 65.22218024 -0.0830991 65.22218024 7.4140625 46.05078125 C7.8755299 36.5664117 4.58633055 29.96590757 -1.25 22.6875 C-6.92631718 16.55161228 -13.67990323 13.34286482 -21.9375 12.6875 C-35.56890907 12.86686065 -48.17447967 20.39075745 -59 28 Z " fill="#4E36EA" transform="translate(369,1556)"/>
<path d="M0 0 C5.20001396 4.33177206 7.29590435 7.42958482 7.96484375 14.23046875 C7.81148133 20.02537722 5.20348779 24.51093488 1.52734375 28.85546875 C-2.26063056 31.91028675 -6.24666517 31.75347884 -10.90625 31.69921875 C-15.79081883 31.15056203 -18.46640322 28.41273546 -21.72265625 24.98046875 C-23.44771048 22.36094195 -24.05696881 20.50835889 -24.41015625 17.41796875 C-33.08062112 21.24910439 -38.20125165 27.72948533 -41.578125 36.42578125 C-44.80981351 45.9225121 -47.42716349 54.96855897 -43.38671875 64.59765625 C-40.70886644 69.58917296 -36.60440765 72.45787388 -31.41015625 74.41796875 C-24.96094122 75.80604483 -20.24223507 75.87401546 -14.41015625 72.41796875 C-3.55482755 64.91187713 4.06871948 52.49370595 11.83984375 42.04296875 C21.28490379 29.39271498 31.34783852 16.94404858 47.58984375 13.41796875 C59.35449398 12.02191631 70.03429227 14.85203709 79.62890625 21.796875 C89.70101784 30.12342144 93.88699306 41.54030829 95.40136719 54.23974609 C97.32648734 76.48834969 89.76282059 101.03457221 76.15234375 118.66796875 C69.35764187 126.29129282 60.94414234 132.65189598 50.58984375 133.73046875 C41.6235549 134.06881927 34.15538346 132.36654648 26.58984375 127.48046875 C22.49905921 123.26184719 20.98964884 119.55198256 20.52734375 113.75390625 C20.70694614 107.04126705 24.02929176 102.08975372 28.58984375 97.41796875 C32.84809121 94.86302027 36.74090317 94.66032178 41.58984375 95.41796875 C47.95133708 97.8603278 51.78129397 102.30127139 54.58984375 108.41796875 C54.58984375 109.07796875 54.58984375 109.73796875 54.58984375 110.41796875 C65.89991043 103.87813427 71.27880934 95.61011295 75.58984375 83.41796875 C75.83734375 82.7528125 76.08484375 82.08765625 76.33984375 81.40234375 C78.77064372 73.6372883 78.98224809 63.50336467 76.40234375 55.79296875 C73.322407 50.05791411 69.83684412 46.87833071 63.69921875 44.859375 C57.9818129 43.66295489 53.19546084 45.09485588 48.28930664 48.20849609 C41.63281453 52.94578411 36.98309923 58.5043629 32.21484375 65.10546875 C30.89758955 66.89582472 29.57858908 68.68489722 28.2578125 70.47265625 C27.62794434 71.32698242 26.99807617 72.18130859 26.34912109 73.06152344 C22.92368799 77.64968335 19.27408763 82.03607017 15.58984375 86.41796875 C15.08710938 87.06636719 14.584375 87.71476563 14.06640625 88.3828125 C7.50712053 96.66345773 -1.86480434 102.15436318 -11.91015625 105.16796875 C-26.14633776 106.5915869 -37.25908347 102.2413787 -49.16015625 94.66796875 C-58.89067176 84.93745324 -62.74418448 73.6770624 -62.91015625 60.10546875 C-62.70842709 40.24899098 -55.16975385 20.07812646 -41.61328125 5.4609375 C-30.44427511 -4.89613734 -13.37622505 -8.78018014 0 0 Z " fill="#4E36EA" transform="translate(127.41015625,647.58203125)"/>
<path d="M0 0 C15.29512018 10.43985723 23.78832852 28.589688 27.734375 46.32421875 C30.49907398 61.20814614 29.2282666 74.23700421 21.0546875 87.26953125 C16.06085052 93.24302047 8.59916312 96.7008779 1.0546875 98.26953125 C-4.57294622 98.63260439 -8.11143494 98.49211629 -12.9453125 95.26953125 C-17.58039927 91.05581601 -18.97664887 87.20672135 -19.8515625 81.0234375 C-19.99254106 76.88219243 -19.28395579 73.71253387 -16.9453125 70.26953125 C-12.14979206 66.37317089 -8.25972112 64.98953561 -2.078125 65.03515625 C1.33273778 65.40997634 3.97397365 66.7907886 7.0546875 68.26953125 C7.7146875 68.26953125 8.3746875 68.26953125 9.0546875 68.26953125 C13.40976448 58.52596919 12.1771138 50.02252188 8.8671875 40.08203125 C5.74017445 32.03352608 2.93066717 25.46892925 -4.8828125 21.20703125 C-11.17303563 18.50720374 -15.65647976 18.65252777 -22.0703125 20.89453125 C-27.28763728 23.16671974 -30.47628905 25.86725579 -32.78746033 31.21995544 C-34.79980179 36.91617649 -35.38589317 41.97624417 -35.38671875 47.9921875 C-35.39992661 48.89593613 -35.41313446 49.79968475 -35.42674255 50.7308197 C-35.46726996 53.59792121 -35.4891668 56.46471056 -35.5078125 59.33203125 C-35.89009662 104.46086437 -35.89009662 104.46086437 -49.3828125 118.796875 C-58.3244328 126.79087793 -69.27502287 128.89563383 -80.94921875 128.56640625 C-93.3609534 127.85365896 -103.30022098 120.39155062 -111.48828125 111.51171875 C-126.28888009 92.81354397 -135.00342833 67.75173288 -132.4453125 43.83203125 C-130.60440223 33.90964068 -126.50982653 25.30714021 -118.5625 18.8984375 C-111.53392221 14.5239346 -103.41203955 12.25715693 -95.16796875 13.59765625 C-90.11151384 15.12614526 -86.97466574 17.72550139 -84.0703125 22.08203125 C-81.74520143 28.66984594 -81.10139111 34.7770668 -83.9453125 41.26953125 C-86.54957644 44.40800317 -88.07619875 45.97982667 -91.9453125 47.26953125 C-99.32135084 47.83775939 -105.21672814 47.37503172 -111.9453125 44.26953125 C-112.45875471 45.93210602 -112.95531131 47.59989757 -113.4453125 49.26953125 C-113.72375 50.19765625 -114.0021875 51.12578125 -114.2890625 52.08203125 C-115.64431073 58.66466551 -114.98899273 64.56900919 -113.3203125 71.01953125 C-113.14209961 71.70982422 -112.96388672 72.40011719 -112.78027344 73.11132812 C-109.78994948 84.05055044 -104.99796337 94.17182308 -95.125 100.421875 C-90.14717879 102.8438194 -85.70840028 103.12838742 -80.45703125 101.49609375 C-74.21081271 98.88656245 -71.49068657 95.93159319 -68.78515625 89.76953125 C-67.03693712 84.56553011 -66.77525651 79.55709789 -66.69921875 74.1015625 C-66.66621176 72.46809498 -66.63300155 70.83463156 -66.59960938 69.20117188 C-66.55281803 66.6635292 -66.50850382 64.12589382 -66.46850586 61.58813477 C-66.31843478 52.48591933 -66.00395745 43.46083327 -65.015625 34.40625 C-64.93667496 33.67461136 -64.85772491 32.94297272 -64.77638245 32.18916321 C-63.45257035 21.04302128 -59.29328684 10.57135942 -50.50390625 3.23046875 C-35.18256551 -7.25138008 -16.30809288 -9.58154529 0 0 Z " fill="#4E36EA" transform="translate(194.9453125,1257.73046875)"/>
<path d="M0 0 C10.88876261 0.49317399 21.75734703 1.15783697 32.625 2 C33.73351318 2.0829834 34.84202637 2.1659668 35.98413086 2.25146484 C37.52725952 2.37448975 37.52725952 2.37448975 39.1015625 2.5 C40.02275879 2.5721875 40.94395508 2.644375 41.89306641 2.71875 C44 3 44 3 45 4 C45.30237269 6.51483725 45.54734868 9.011961 45.75390625 11.53515625 C45.85166603 12.66503212 45.85166603 12.66503212 45.95140076 13.81773376 C46.15933351 16.23231517 46.36098006 18.64737574 46.5625 21.0625 C46.70206138 22.69599884 46.84202999 24.32946295 46.98242188 25.96289062 C47.32634759 29.97487205 47.6646351 33.98729427 48 38 C48.68964844 36.87722656 49.37929688 35.75445313 50.08984375 34.59765625 C58.13088988 21.70780317 66.57793109 9.22116652 82 5 C84.67468474 4.78855162 87.20557519 4.66602586 89.875 4.6875 C90.58245361 4.69168945 91.28990723 4.69587891 92.01879883 4.70019531 C99.68968607 4.86643471 105.37942109 6.53554828 111 12 C116.40729877 18.95224127 118.02929348 26.35393477 117 35 C115.26568688 41.77958766 112.85916658 46.13544332 107 50 C101.24613793 51.91795402 95.19393183 51.89303484 89.625 49.375 C84.95756687 46.72540665 82.67979481 43.03938442 81 38 C80.90752619 36.52313889 80.87000929 35.04224499 80.875 33.5625 C80.87113281 32.41974609 80.87113281 32.41974609 80.8671875 31.25390625 C80.99723985 29.04684141 81.39143801 27.12030724 82 25 C75.03482177 25.14510788 71.72392495 28.08861771 67 33 C66.4121875 33.59296875 65.824375 34.1859375 65.21875 34.796875 C60.94752805 39.6505363 58.35906351 45.12057399 55.8125 51 C55.49152344 51.72799805 55.17054688 52.45599609 54.83984375 53.20605469 C48.54188858 68.48900581 47.08785669 84.50164215 45.8125 100.8125 C45.64765432 102.8015296 45.4816437 104.79046301 45.31445312 106.77929688 C44.75239641 113.51297051 44.20668316 120.24770863 43.70068359 126.98583984 C43.5762085 128.6073999 43.5762085 128.6073999 43.44921875 130.26171875 C43.35193481 131.59722778 43.35193481 131.59722778 43.25268555 132.9597168 C43 135 43 135 42 137 C43.17175781 137.25394531 44.34351563 137.50789063 45.55078125 137.76953125 C70.13832126 143.13832126 70.13832126 143.13832126 72 145 C71.82112386 149.34495907 71.37849008 153.66839136 71 158 C61.75516763 158.14752489 52.65958988 157.71549586 43.44921875 156.94140625 C42.09694174 156.83129257 40.74463072 156.72159572 39.39228821 156.61228943 C36.58441395 156.38427952 33.77684678 156.15290438 30.96948242 155.91870117 C27.39166622 155.62026876 23.81338317 155.32797278 20.2348814 155.03788853 C16.78531207 154.75793845 13.33601398 154.47470972 9.88671875 154.19140625 C8.61261642 154.08719864 7.3385141 153.98299103 6.02580261 153.87562561 C-0.00396964 153.37246704 -6.00399907 152.81464102 -12 152 C-11.67 147.38 -11.34 142.76 -11 138 C-3.74 136.68 3.52 135.36 11 134 C11.40109985 128.88105225 11.40109985 128.88105225 11.81030273 123.65869141 C12.69257633 112.40666419 13.57938281 101.15499735 14.46855068 89.90351295 C15.007751 83.07908074 15.54538213 76.25453162 16.0793457 69.4296875 C16.59426891 62.84826376 17.11352988 56.26719171 17.6354847 49.68632126 C17.8342993 47.17053002 18.0316389 44.65462178 18.22750664 42.1385994 C18.50124795 38.62544799 18.78014342 35.11274223 19.06030273 31.60009766 C19.14086411 30.55065475 19.22142548 29.50121185 19.3044281 28.41996765 C19.38153015 27.46641891 19.4586322 26.51287018 19.53807068 25.53042603 C19.60351798 24.69896875 19.66896528 23.86751148 19.73639584 23.01085854 C20 21 20 21 21 19 C19.7625 18.7525 18.525 18.505 17.25 18.25 C11.34305196 16.94990617 5.71384396 14.97029102 0 13 C0 8.71 0 4.42 0 0 Z " fill="#4E36EA" transform="translate(883,1842)"/>
<path d="M0 0 C5.77290756 3.73541077 8.98299021 8.40198494 11 15 C12.01938235 22.7933425 12.32198054 30.09835302 7.3671875 36.55078125 C4.11035954 40.00301888 1.34468514 41.80859713 -3.48828125 42.203125 C-9.0620623 42.29563589 -13.28563323 42.3345521 -18 39 C-23.39777939 33.30234398 -24.22583792 28.62135553 -24.0703125 21.01171875 C-24.04710937 20.34785156 -24.02390625 19.68398438 -24 19 C-27.30898183 18.91727545 -29.39976889 19.50814395 -31.96875 21.61328125 C-45.32685811 35.66498344 -49.22276407 56.95758001 -49.15625 75.78515625 C-49.15451782 76.6048439 -49.15278564 77.42453156 -49.15100098 78.26905823 C-49.07261033 87.36405099 -48.31386449 96.38394037 -47.5 105.4375 C-46.59637053 115.64527857 -45.72563635 125.73803734 -46 136 C-44.74445313 136.06058594 -43.48890625 136.12117187 -42.1953125 136.18359375 C-18.2627294 137.3686353 -18.2627294 137.3686353 -15 139 C-13.98859826 142.23648556 -13.9583104 145.32911424 -13.9765625 148.6875 C-13.97994629 149.49574219 -13.98333008 150.30398437 -13.98681641 151.13671875 C-13.99334229 152.05904297 -13.99334229 152.05904297 -14 153 C-23.64031548 153.7860876 -33.28090579 154.56869035 -42.92185974 155.34690857 C-47.39905545 155.70841684 -51.87614922 156.0711016 -56.35302734 156.43652344 C-60.67757098 156.78946672 -65.00235941 157.13925635 -69.32733154 157.48690796 C-70.97313441 157.61975004 -72.6188477 157.7537071 -74.26446533 157.88882446 C-76.57842293 158.07862125 -78.89267419 158.26436539 -81.20703125 158.44921875 C-82.5216333 158.55580811 -83.83623535 158.66239746 -85.19067383 158.7722168 C-89.14573662 159.0087145 -93.03937355 159.03881078 -97 159 C-97.33 154.38 -97.66 149.76 -98 145 C-95.06428063 143.99449367 -92.1266423 142.99540746 -89.1875 142 C-88.35412109 141.71382812 -87.52074219 141.42765625 -86.66210938 141.1328125 C-85.85966797 140.86210937 -85.05722656 140.59140625 -84.23046875 140.3125 C-83.12288208 139.93544922 -83.12288208 139.93544922 -81.99291992 139.55078125 C-80 139 -80 139 -77 139 C-79.97 100.72 -82.94 62.44 -86 23 C-91.28 22.34 -96.56 21.68 -102 21 C-103.98 20.67 -105.96 20.34 -108 20 C-108.33 15.71 -108.66 11.42 -109 7 C-104.35986483 6.56632095 -99.71917354 6.13937273 -95.07788086 5.71826172 C-93.50382378 5.57453717 -91.92992434 5.42907397 -90.35620117 5.28173828 C-81.55263771 4.45876605 -72.85432572 3.7383316 -64 4 C-63.76289307 4.96413818 -63.52578613 5.92827637 -63.28149414 6.92163086 C-62.40353953 10.487619 -61.52096342 14.05244962 -60.63696289 17.61694336 C-60.2545085 19.16187704 -59.87331989 20.70712463 -59.4934082 22.25268555 C-58.94812638 24.47007018 -58.39835014 26.68629791 -57.84765625 28.90234375 C-57.6778273 29.5971434 -57.50799835 30.29194305 -57.33302307 31.00779724 C-56.71371793 34.27776892 -56.71371793 34.27776892 -55 37 C-54.67128906 35.99582031 -54.34257813 34.99164063 -54.00390625 33.95703125 C-49.12981726 19.69580791 -42.45083212 6.76859416 -28.41015625 -0.3046875 C-19.22822383 -4.12500372 -8.91713705 -4.92947352 0 0 Z " fill="#4E36EA" transform="translate(980,25)"/>
</svg>
